<?xml version="1.0" encoding="UTF-8" standalone="no"?><!DOCTYPE svg PUBLIC "-//W3C//DTD SVG 1.1//EN" "http://www.w3.org/Graphics/SVG/1.1/DTD/svg11.dtd"><svg width="100%" height="100%" viewBox="0 0 900 384" version="1.1" xmlns="http://www.w3.org/2000/svg" xmlns:xlink="http://www.w3.org/1999/xlink" xml:space="preserve" style="fill-rule:evenodd;clip-rule:evenodd;stroke-linecap:round;stroke-linejoin:round;stroke-miterlimit:1.5;"><rect id="Background" x="0" y="0" width="900" height="450" style="fill:#2a3641;"/><path id="Stage" d="M772.412,310.62l-639.516,0.303l-132.896,73.967l899.244,0l-126.832,-74.27l0,0Z" style="fill:#fff;"/><g id="RomeoAndJuliet"><rect id="Building" x="419.144" y="38.986" width="224.397" height="324.894" style="fill:#c4bcc2;stroke:#2a3641;stroke-width:4px;"/><g id="Juliet"><path d="M507.666,130.204c-0.369,-1.583 -1.954,-2.568 -3.537,-2.199l-5.736,1.338c-1.583,0.369 -2.569,1.954 -2.2,3.537l2.679,11.488c0.369,1.583 1.954,2.568 3.537,2.199l5.737,-1.337c1.583,-0.37 2.568,-1.955 2.199,-3.538l-2.679,-11.488l0,0Z" style="fill:#ffad0d;stroke:#2a3641;stroke-width:4px;"/><path d="M515.847,188.278c1.579,-4.916 -6.723,-11.164 -4.934,-16.529c9.586,-28.748 -6.411,-40.374 -11.808,-31.598c-13.579,22.081 -24.049,8.653 -9.403,29.758c3.225,4.646 -7.88,13.878 -6.183,18.756l32.328,-0.387l0,0Z" style="fill:#2a3641;stroke:#2a3641;stroke-width:4px;"/><path d="M474.393,167.509c0.385,-0.722 0.946,-1.363 1.67,-1.854l24.741,-16.777c2.379,-1.613 5.621,-0.991 7.235,1.388c1.613,2.38 0.991,5.621 -1.388,7.235l-24.741,16.776c-0.611,0.415 -1.28,0.682 -1.962,0.809c-0.579,0.601 -1.323,1.055 -2.187,1.283l-23.31,6.155c-2.515,0.664 -5.096,-0.838 -5.76,-3.353c-0.664,-2.515 0.838,-5.097 3.353,-5.761l22.349,-5.901l0,0Z" style="fill:#ffad0d;stroke:#2a3641;stroke-width:4px;"/><path d="M543.245,276.35c50.279,1.854 5.212,-12.872 2.42,-23.189c-11.417,-42.188 -17.143,-68.144 -43.012,-68.144c-25.869,0 -21.558,5.071 -30.604,54.911c-1.909,10.517 -14.102,27.166 -9.988,36.422l81.184,0Z" style="fill:#2a3641;stroke:#2a3641;stroke-width:4px;"/><path d="M489.882,97.402c7.338,-2.524 15.97,3.198 19.262,12.771c3.292,9.572 0.007,19.393 -7.331,21.917c-7.339,2.525 -15.97,-3.198 -19.262,-12.771c-3.293,-9.572 -0.008,-19.393 7.331,-21.917Z" style="fill:#ffad0d;stroke:#2a3641;stroke-width:4px;"/><path d="M487.826,94.226c5.612,-3.12 16.444,0.504 18.917,4.952c2.473,4.448 16.903,23.383 -10.344,10.137c-5.775,-2.807 -15.88,6.153 -18.353,1.705c-2.473,-4.448 4.169,-13.674 9.78,-16.794Z" style="fill:#fff;stroke:#2a3641;stroke-width:4px;"/><path d="M503.313,106.718c4.511,-2.508 10.538,-0.291 13.452,4.948c2.913,5.24 1.616,11.53 -2.895,14.038c-4.51,2.508 -10.538,0.291 -13.451,-4.949c-2.913,-5.239 -1.617,-11.529 2.894,-14.037l0,0Z" style="fill:#fff;stroke:#2a3641;stroke-width:4px;"/><path d="M438.127,177.375c-0.284,3.156 3.731,4.309 6.886,4.592l7.687,0.691c3.156,0.283 5.948,-2.048 6.231,-5.204c0.284,-3.155 -2.048,-5.947 -5.203,-6.231l-7.688,-0.69c-3.155,-0.284 -7.63,3.687 -7.913,6.842l0,0Z" style="fill:#ffad0d;stroke:#2a3641;stroke-width:4px;"/></g><g id="Balcony"><path d="M445.124,218.514l12.36,0l0,63.867l-12.36,0l0,-63.867l0,0Zm26.442,0l12.361,0l0,63.867l-12.361,0l0,-63.867l0,0Zm26.443,0l12.36,0l0,63.867l-12.36,0l0,-63.867l0,0Zm26.443,0l12.36,0l0,63.867l-12.36,0l0,-63.867l0,0Zm26.442,0l12.36,0l0,63.867l-12.36,0l0,-63.867l0,0Zm26.443,0l12.36,0l0,63.867l-12.36,0l0,-63.867l0,0Zm38.802,0l0,63.867l-12.36,0l0,-63.867l12.36,0Z" style="fill:#ffad0d;stroke:#2a3641;stroke-width:4px;"/><rect x="445.124" y="268.128" width="170.306" height="14.252" style="fill:#ffad0d;stroke:#2a3641;stroke-width:4px;"/><rect x="432.853" y="210.694" width="195.777" height="7.82" style="fill:#ffad0d;stroke:#2a3641;stroke-width:4px;"/></g><g id="Romeo"><path d="M315.024,250.656c-1.545,0.188 -3.16,-0.281 -4.388,-1.424l-28.934,-26.942c-2.208,-2.056 -2.331,-5.517 -0.276,-7.725c2.056,-2.208 5.517,-2.331 7.725,-0.275l27.723,23.697l21.621,-2.895c2.973,-0.514 2.745,2.119 3.258,5.091c0.514,2.972 1.665,5.803 -1.307,6.316l-23.827,4.117c-0.541,0.093 -1.077,0.104 -1.595,0.04l0,0Z" style="fill:#fff;stroke:#2a3641;stroke-width:4px;"/><path d="M285.915,371.349c0.656,-3.074 -15.246,-7.945 -18.32,-8.601l-4.869,-3.762c-3.074,-0.657 -6.103,1.306 -6.759,4.38c-0.656,3.074 1.306,6.103 4.38,6.759l18.813,2.081c3.074,0.657 6.098,2.217 6.755,-0.857l0,0Z" style="fill:#2a3641;stroke:#2a3641;stroke-width:4px;"/><path d="M311.104,358.787c0.414,-3.116 -15.82,-6.726 -18.936,-7.14l-5.149,-3.369c-3.116,-0.413 -5.982,1.781 -6.395,4.897c-0.414,3.116 1.78,5.981 4.896,6.395l18.917,0.601c3.116,0.414 6.254,1.732 6.667,-1.384l0,0Z" style="fill:#2a3641;stroke:#2a3641;stroke-width:4px;"/><path d="M272.255,282.773c0.07,-2.633 -2.01,-4.827 -4.643,-4.897l-9.54,-0.253c-2.632,-0.07 -4.827,2.01 -4.897,4.643c0.211,27.025 2.744,52.197 2.088,76.32c-0.07,2.633 1.631,4.587 1.284,7.891l8.728,-0.703c2.633,0.07 4.092,-2.01 4.162,-4.643c0.045,-26.215 1.047,-52.328 2.818,-78.358l0,0Z" style="fill:#986f1c;stroke:#2a3641;stroke-width:4px;"/><path d="M295.477,275.189c-0.024,-2.633 -2.182,-4.751 -4.815,-4.727l-9.543,0.089c-2.634,0.024 -4.752,2.182 -4.727,4.815c1.179,27.001 4.147,55.018 4.356,79.15c0.018,2.162 3.842,-3.315 3.613,0l7.117,0c2.633,-0.025 4.019,-0.161 3.993,-0.918c-0.895,-26.2 -0.83,-52.332 0.006,-78.409l0,0Z" style="fill:#986f1c;stroke:#2a3641;stroke-width:4px;"/><path d="M275.456,204.225c0.051,-3.648 -2.869,-6.651 -6.517,-6.702c-3.648,-0.05 -6.651,2.87 -6.702,6.518l-0.243,17.384c-0.05,3.648 2.87,6.651 6.518,6.702c3.648,0.051 6.651,-2.869 6.702,-6.517l0.242,-17.385l0,0Z" style="fill:#ffad0d;stroke:#2a3641;stroke-width:4px;"/><path d="M355.256,237.259c-0.502,-3.128 -4.677,-3.258 -7.805,-2.756l-7.621,1.223c-3.128,0.502 -5.26,3.449 -4.758,6.577c0.502,3.128 3.449,5.261 6.577,4.759l7.621,-1.223c3.128,-0.502 6.488,-5.452 5.986,-8.58Z" style="fill:#ffad0d;stroke:#2a3641;stroke-width:4px;"/><path d="M293.202,280.336c1.719,-6.723 2.486,-14.309 2.225,-21.996c-0.82,-24.168 -4.508,-45.994 -23.17,-45.556c-26.447,0.621 -21.966,22.892 -21.146,47.06c0.261,7.687 1.541,15.203 3.712,21.794l38.379,-1.302Z" style="fill:#fff;stroke:#2a3641;stroke-width:4px;"/><g id="RomeoSword"><rect x="252.81" y="270.019" width="41.798" height="5.884" style="fill:#c4bcc2;stroke:#2a3641;stroke-width:4px;"/><path d="M252.941,323.147l15.788,-50.186l11.648,3.664l-15.841,50.356l0.748,0.248l-10.96,12.07l-1.603,-16.225l0.22,0.073Z" style="fill:#c4bcc2;stroke:#2a3641;stroke-width:4px;"/><path d="M283.652,260.756l-7.201,-2.233l-3.742,12.067l7.201,2.233l3.742,-12.067Z" style="fill:#c4bcc2;stroke:#2a3641;stroke-width:4px;"/><path d="M286.774,272.932l-19.536,-5.855l-1.689,5.636l19.536,5.855l1.689,-5.636Z" style="fill:#c4bcc2;stroke:#2a3641;stroke-width:4px;"/></g><path d="M267.468,297.843c2.546,-1.886 0.74,-5.652 -1.146,-8.198l-4.593,-6.203c-1.885,-2.546 -5.483,-3.082 -8.029,-1.197c-2.546,1.886 -3.083,5.484 -1.197,8.03l4.593,6.202c1.885,2.546 7.826,3.251 10.372,1.366Z" style="fill:#ffad0d;stroke:#2a3641;stroke-width:4px;"/><path d="M241.51,254.242c-0.357,0.844 -0.004,-5.318 0.005,-5.965c0.14,-9.636 1.013,-15.599 1.157,-25.549c0.042,-2.875 2.793,-4.414 6.14,-4.378c3.348,0.036 6.032,1.633 5.99,4.507c-1.796,11.421 -1.855,21.197 -0.428,29.566c-0.009,0.599 -0.135,1.174 -0.361,1.709c0.092,0.219 0.169,0.446 0.227,0.68l7.233,28.908c0.703,2.811 -0.238,2.523 -3.511,3.127c-3.273,0.604 -5.828,2.008 -6.531,-0.803l-9.051,-29.043c-0.248,-0.992 -1.246,-1.871 -0.87,-2.759Z" style="fill:#fff;stroke:#2a3641;stroke-width:4px;"/><ellipse cx="273.035" cy="183.946" rx="18.394" ry="21.241" style="fill:#ffad0d;stroke:#2a3641;stroke-width:4px;"/><path d="M251.969,184.007c-0.07,-9.476 3.628,-17.197 8.251,-17.231c4.624,-0.034 8.435,7.632 8.504,17.108c0.07,9.476 -3.628,17.198 -8.251,17.232c-4.624,0.033 -8.435,-7.632 -8.504,-17.109l0,0Z" style="fill:#fff;stroke:#2a3641;stroke-width:4px;"/><path d="M272.551,158.412c9.461,-0.548 18.611,-0.324 18.878,4.293c0.267,4.616 -3.616,12.639 -17.909,12.435c-9.475,-0.135 -17.359,-2.755 -17.626,-7.371c-0.267,-4.616 7.196,-8.809 16.657,-9.357Z" style="fill:#fff;stroke:#2a3641;stroke-width:4px;"/></g></g><g id="Dancers"><g id="Dancer3"><ellipse cx="547.85" cy="129.447" rx="7.606" ry="9.021" style="fill:#fff;stroke:#2a3641;stroke-width:4px;"/><path d="M567.397,168.613c2.491,10.925 12.542,-2.05 12.305,-4.279c0,0 0.863,-15.338 -1.872,-14.806c-4.979,0.967 -5.701,-18.51 -5.701,-18.51c-0.237,-2.23 -2.24,-3.847 -4.47,-3.61l-8.08,0.861c-2.229,0.237 -3.847,2.24 -3.609,4.47c0,0 6.131,17.623 -0.515,18.333c-10.518,1.124 0,14.022 0,14.022c0.238,2.229 -2.23,3.53 0,3.292l11.942,0.227Z" style="fill:#ffad0d;stroke:#2a3641;stroke-width:4px;"/><ellipse cx="562.223" cy="120.534" rx="16.638" ry="18.489" style="fill:#ffad0d;stroke:#2a3641;stroke-width:4px;"/><path d="M517,188.661l26.266,-37.852c1.152,-1.66 3.434,-2.072 5.094,-0.92l6.013,4.173c1.66,1.151 2.072,3.433 0.921,5.093l-26.623,38.366c-0.199,0.931 -0.758,1.779 -1.611,2.322l-0.331,0.478c-0.787,1.133 -2.1,1.684 -3.382,1.554l-40.507,22.06c-1.774,0.966 -3.999,0.31 -4.965,-1.464l-3.501,-6.428c-0.966,-1.774 -0.31,-3.998 1.464,-4.965l41.162,-22.417l0,0Z" style="fill:#ffad0d;stroke:#2a3641;stroke-width:4px;"/><path d="M547.879,107.852c5.095,-7.884 12.627,-12.091 16.809,-9.388c4.181,2.703 3.439,11.298 -1.656,19.182c-5.096,7.884 -12.628,12.09 -16.809,9.387c-4.182,-2.702 -3.44,-11.297 1.656,-19.181Z" style="fill:#fff;stroke:#2a3641;stroke-width:4px;"/><path d="M602.675,196.555l-22.844,-32.473c-1.152,-1.66 6.298,-2.501 3.163,-6.415l0.663,-7.778c1.659,-1.152 3.942,-0.74 5.093,0.92l28.565,41.166c0.092,0.131 0.173,0.267 0.245,0.406l37.491,20.417c1.774,0.966 2.43,3.191 1.464,4.965l-3.501,6.428c-0.966,1.774 -3.191,2.43 -4.965,1.464l-44.003,-23.965c-1.774,-0.966 -2.43,-3.19 -1.464,-4.964l0.093,-0.171l0,0Z" style="fill:#ffad0d;stroke:#2a3641;stroke-width:4px;"/><g><path d="M562.829,351.942c0,-0.938 -0.762,-1.701 -1.7,-1.701l-3.402,0c-0.938,0 -1.7,-1.495 -1.7,-0.557c1.634,3.112 1.609,8.503 0,11.654c0,0.939 0.762,1.701 1.7,1.701l3.402,0c0.938,0 1.7,-0.762 1.7,-1.701l0,-9.396l0,0Z" style="fill:#986f1c;stroke:#2a3641;stroke-width:4px;"/><path d="M589.347,360.291c1.896,-4.184 -9.084,-8.731 -13.232,-10.403c-3.597,-1.451 -2.13,-12.492 -8.629,-11.024c-1.634,-0.741 -5.242,-1.109 -8.86,-0.612c-1.903,0.262 -0.818,5.997 -1.974,8.547c-1.896,4.184 0.738,4.622 4.923,6.517l9.447,7.905c4.185,1.896 16.429,3.255 18.325,-0.93l0,0Z" style="fill:#986f1c;stroke:#2a3641;stroke-width:4px;"/></g><g><path d="M672.124,190.979c-0.924,0.165 -1.54,1.049 -1.375,1.973l0.597,3.348c0.165,0.924 -1.173,1.937 -0.249,1.772c2.776,-2.156 8.087,-3.078 11.472,-2.048c0.924,-0.165 1.541,-1.049 1.376,-1.973l-0.598,-3.348c-0.165,-0.924 -1.049,-1.541 -1.973,-1.376l-9.25,1.652l0,0Z" style="fill:#986f1c;stroke:#2a3641;stroke-width:4px;"/><path d="M675.683,163.407c-4.453,-1.131 -6.999,10.476 -7.916,14.854c-0.796,3.796 -11.923,4.292 -9.336,10.431c-0.442,1.74 -0.17,5.356 0.955,8.831c0.591,1.826 6.047,-0.249 8.76,0.441c4.453,1.13 4.42,-1.539 5.551,-5.992l6.121,-10.689c1.131,-4.453 0.318,-16.745 -4.135,-17.876l0,0Z" style="fill:#986f1c;stroke:#2a3641;stroke-width:4px;"/></g><path d="M590.873,237.894c0.48,-2.721 -3.536,-10.137 -11.841,-11.829c-5.472,-1.114 -13.908,1.687 -14.98,6.568c-0.815,3.714 -3.905,26 -3.523,31.546c1.408,20.44 6.153,6.833 -0.152,40.999c-2.499,13.546 -4.111,23.758 -2.949,37.862c10.052,2.396 12.874,0.246 12.874,0.246c0.634,0.112 2.634,-3.739 3.002,-5.826l17.569,-99.566l0,0Z" style="fill:#ffad0d;stroke:#2a3641;stroke-width:4px;"/><path d="M551.71,223.321c-0.04,-0.206 -0.07,-0.412 -0.09,-0.615c5.408,-17.889 -0.807,-42.232 -9.453,-63.287c-0.617,-6.363 1.411,-10.458 9.253,-11.774c2.871,1.46 4.798,12.607 7.63,15.853c2.681,3.073 6.285,3.093 8.347,2.9c2.115,-0.198 8.783,-1.854 10.459,-5.821c1.479,-3.501 -2.054,-14.004 0,-16.319c6.747,-0.654 12.595,4.053 13.213,10.416c-5.353,20.415 -3.732,39.982 5.686,58.603c0.265,2.733 -0.414,6.779 -1.81,10.556c0.084,0.617 0.127,1.278 0.127,1.989c0,11.241 -10.438,24.884 -24.238,30.486c-12.463,5.058 -24.37,-9.126 -24.37,-20.368c0,-4.764 1.962,-9.148 5.246,-12.619l0,0Z" style="fill:#fff;stroke:#2a3641;stroke-width:4px;"/><path d="M559.536,225.692c-2.549,1.065 -6.622,8.449 -3.562,16.353c2.016,5.207 8.929,10.795 13.616,9.062c3.567,-1.319 23.993,-10.753 28.454,-14.069c16.444,-12.222 2.43,-8.868 34.591,-22.011c12.751,-5.211 13.578,-9.185 27.01,-15.247c1.135,-10.636 2.972,-2.522 1.907,-5.071l-2.177,-5.304c-1.065,-2.549 -4,-3.754 -6.549,-2.689l-93.29,38.976l0,0Z" style="fill:#ffad0d;stroke:#2a3641;stroke-width:4px;"/><path d="M487.622,223.18c1.896,-4.184 0.038,-9.121 -4.147,-11.017c-3.597,-1.45 -11.914,-2.944 -13.979,-5.151c-4.184,-1.896 -5.365,0.482 -7.261,4.667c-1.896,4.184 0.185,7.698 4.369,9.594l10.001,4.828c4.185,1.895 9.121,1.264 11.017,-2.921Z" style="fill:#ffad0d;stroke:#2a3641;stroke-width:4px;"/><path d="M647.853,220.287c0.54,-4.563 4.682,-7.828 9.244,-7.288c3.829,0.617 11.721,3.638 14.629,2.815c4.562,0.54 4.345,3.186 3.805,7.748c-0.54,4.563 -4.138,6.495 -8.7,5.955l-11.056,-1.036c-4.563,-0.54 -8.462,-3.632 -7.922,-8.194l0,0Z" style="fill:#ffad0d;stroke:#2a3641;stroke-width:4px;"/><path d="M565.655,90.756c-1.26,-3.108 -4.807,-4.609 -7.915,-3.349l-13.701,5.553c-3.108,1.26 -4.609,4.807 -3.349,7.915l4.566,11.264c1.259,3.108 4.806,4.609 7.914,3.349l13.701,-5.553c3.108,-1.26 4.609,-4.807 3.349,-7.915l-4.565,-11.264Z" style="fill:#986f1c;stroke:#2a3641;stroke-width:4px;"/><path d="M576.71,102.326c-0.289,-0.717 -1.105,-1.065 -1.822,-0.777l-33.766,13.578c-0.717,0.288 -1.065,1.104 -0.777,1.822l1.045,2.598c0.289,0.718 1.105,1.066 1.822,0.777l33.766,-13.577c0.717,-0.289 1.065,-1.105 0.777,-1.822l-1.045,-2.599Z" style="fill:#986f1c;stroke:#2a3641;stroke-width:4px;"/></g><g id="Dancer2"><ellipse cx="425.373" cy="129.447" rx="7.606" ry="9.021" style="fill:#fff;stroke:#2a3641;stroke-width:4px;"/><path d="M444.92,168.613c2.491,10.925 12.543,-2.05 12.305,-4.279c0,0 0.863,-15.338 -1.872,-14.806c-4.978,0.967 -5.7,-18.51 -5.7,-18.51c-0.238,-2.23 -2.241,-3.847 -4.471,-3.61l-8.079,0.861c-2.23,0.237 -3.847,2.24 -3.61,4.47c0,0 6.132,17.623 -0.514,18.333c-10.518,1.124 0,14.022 0,14.022c0.237,2.229 -2.23,3.53 0,3.292l11.941,0.227Z" style="fill:#ffad0d;stroke:#2a3641;stroke-width:4px;"/><ellipse cx="439.747" cy="120.534" rx="16.638" ry="18.489" style="fill:#ffad0d;stroke:#2a3641;stroke-width:4px;"/><path d="M394.524,188.661l26.266,-37.852c1.151,-1.66 3.434,-2.072 5.093,-0.92l6.014,4.173c1.659,1.151 2.072,3.433 0.92,5.093l-26.623,38.366c-0.199,0.931 -0.758,1.779 -1.61,2.322l-0.332,0.478c-0.786,1.133 -2.099,1.684 -3.382,1.554l-40.507,22.06c-1.774,0.966 -3.998,0.31 -4.964,-1.464l-3.501,-6.428c-0.966,-1.774 -0.31,-3.998 1.463,-4.965l41.163,-22.417l0,0Z" style="fill:#ffad0d;stroke:#2a3641;stroke-width:4px;"/><path d="M425.402,107.852c5.096,-7.884 12.628,-12.091 16.809,-9.388c4.182,2.703 3.44,11.298 -1.656,19.182c-5.096,7.884 -12.628,12.09 -16.809,9.387c-4.182,-2.702 -3.44,-11.297 1.656,-19.181Z" style="fill:#fff;stroke:#2a3641;stroke-width:4px;"/><path d="M480.199,196.555l-22.845,-32.473c-1.151,-1.66 6.299,-2.501 3.163,-6.415l0.663,-7.778c1.66,-1.152 3.942,-0.74 5.094,0.92l28.565,41.166c0.091,0.131 0.173,0.267 0.244,0.406l37.491,20.417c1.774,0.966 2.43,3.191 1.464,4.965l-3.501,6.428c-0.966,1.774 -3.19,2.43 -4.964,1.464l-44.004,-23.965c-1.774,-0.966 -2.43,-3.19 -1.463,-4.964l0.093,-0.171l0,0Z" style="fill:#ffad0d;stroke:#2a3641;stroke-width:4px;"/><g><path d="M440.353,351.942c0,-0.938 -0.762,-1.701 -1.701,-1.701l-3.401,0c-0.939,0 -1.701,-1.495 -1.701,-0.557c1.635,3.112 1.609,8.503 0,11.654c0,0.939 0.762,1.701 1.701,1.701l3.401,0c0.939,0 1.701,-0.762 1.701,-1.701l0,-9.396l0,0Z" style="fill:#986f1c;stroke:#2a3641;stroke-width:4px;"/><path d="M466.87,360.291c1.896,-4.184 -9.083,-8.731 -13.232,-10.403c-3.597,-1.451 -2.13,-12.492 -8.628,-11.024c-1.635,-0.741 -5.243,-1.109 -8.861,-0.612c-1.902,0.262 -0.818,5.997 -1.973,8.547c-1.896,4.184 0.738,4.622 4.922,6.517l9.448,7.905c4.184,1.896 16.428,3.255 18.324,-0.93l0,0Z" style="fill:#986f1c;stroke:#2a3641;stroke-width:4px;"/></g><g><path d="M549.647,190.979c-0.924,0.165 -1.54,1.049 -1.375,1.973l0.598,3.348c0.165,0.924 -1.174,1.937 -0.25,1.772c2.777,-2.156 8.087,-3.078 11.473,-2.048c0.924,-0.165 1.54,-1.049 1.375,-1.973l-0.598,-3.348c-0.165,-0.924 -1.049,-1.541 -1.973,-1.376l-9.25,1.652l0,0Z" style="fill:#986f1c;stroke:#2a3641;stroke-width:4px;"/><path d="M553.206,163.407c-4.452,-1.131 -6.998,10.476 -7.916,14.854c-0.796,3.796 -11.923,4.292 -9.336,10.431c-0.442,1.74 -0.17,5.356 0.955,8.831c0.592,1.826 6.047,-0.249 8.76,0.441c4.453,1.13 4.421,-1.539 5.552,-5.992l6.121,-10.689c1.131,-4.453 0.317,-16.745 -4.136,-17.876l0,0Z" style="fill:#986f1c;stroke:#2a3641;stroke-width:4px;"/></g><path d="M468.396,237.894c0.48,-2.721 -3.536,-10.137 -11.841,-11.829c-5.472,-1.114 -13.907,1.687 -14.979,6.568c-0.816,3.714 -3.906,26 -3.524,31.546c1.408,20.44 6.153,6.833 -0.151,40.999c-2.5,13.546 -4.112,23.758 -2.95,37.862c10.052,2.396 12.874,0.246 12.874,0.246c0.634,0.112 2.634,-3.739 3.003,-5.826l17.568,-99.566l0,0Z" style="fill:#ffad0d;stroke:#2a3641;stroke-width:4px;"/><path d="M429.233,223.321c-0.039,-0.206 -0.07,-0.412 -0.089,-0.615c5.407,-17.889 -0.808,-42.232 -9.454,-63.287c-0.617,-6.363 1.411,-10.458 9.254,-11.774c2.87,1.46 4.798,12.607 7.629,15.853c2.681,3.073 6.285,3.093 8.347,2.9c2.115,-0.198 8.783,-1.854 10.459,-5.821c1.479,-3.501 -2.053,-14.004 0,-16.319c6.748,-0.654 12.596,4.053 13.213,10.416c-5.353,20.415 -3.731,39.982 5.686,58.603c0.266,2.733 -0.414,6.779 -1.81,10.556c0.085,0.617 0.128,1.278 0.128,1.989c0,11.241 -10.438,24.884 -24.239,30.486c-12.463,5.058 -24.369,-9.126 -24.369,-20.368c0,-4.764 1.961,-9.148 5.245,-12.619l0,0Z" style="fill:#fff;stroke:#2a3641;stroke-width:4px;"/><path d="M437.06,225.692c-2.55,1.065 -6.623,8.449 -3.563,16.353c2.017,5.207 8.93,10.795 13.616,9.062c3.567,-1.319 23.993,-10.753 28.455,-14.069c16.444,-12.222 2.429,-8.868 34.59,-22.011c12.751,-5.211 13.579,-9.185 27.01,-15.247c1.135,-10.636 2.972,-2.522 1.907,-5.071l-2.177,-5.304c-1.065,-2.549 -3.999,-3.754 -6.549,-2.689l-93.289,38.976l0,0Z" style="fill:#ffad0d;stroke:#2a3641;stroke-width:4px;"/><path d="M365.145,223.18c1.896,-4.184 0.038,-9.121 -4.147,-11.017c-3.597,-1.45 -11.913,-2.944 -13.978,-5.151c-4.185,-1.896 -5.366,0.482 -7.262,4.667c-1.896,4.184 0.185,7.698 4.37,9.594l10,4.828c4.185,1.895 9.122,1.264 11.017,-2.921Z" style="fill:#ffad0d;stroke:#2a3641;stroke-width:4px;"/><path d="M525.376,220.287c0.54,-4.563 4.682,-7.828 9.245,-7.288c3.829,0.617 11.72,3.638 14.629,2.815c4.562,0.54 4.344,3.186 3.804,7.748c-0.54,4.563 -4.137,6.495 -8.7,5.955l-11.056,-1.036c-4.562,-0.54 -8.462,-3.632 -7.922,-8.194l0,0Z" style="fill:#ffad0d;stroke:#2a3641;stroke-width:4px;"/><path d="M443.178,90.756c-1.26,-3.108 -4.806,-4.609 -7.915,-3.349l-13.7,5.553c-3.109,1.26 -4.61,4.807 -3.35,7.915l4.566,11.264c1.26,3.108 4.806,4.609 7.915,3.349l13.7,-5.553c3.109,-1.26 4.61,-4.807 3.35,-7.915l-4.566,-11.264Z" style="fill:#986f1c;stroke:#2a3641;stroke-width:4px;"/><path d="M454.233,102.326c-0.289,-0.717 -1.105,-1.065 -1.822,-0.777l-33.765,13.578c-0.718,0.288 -1.066,1.104 -0.777,1.822l1.045,2.598c0.288,0.718 1.104,1.066 1.822,0.777l33.765,-13.577c0.717,-0.289 1.065,-1.105 0.777,-1.822l-1.045,-2.599Z" style="fill:#986f1c;stroke:#2a3641;stroke-width:4px;"/></g><g id="Dancer1"><ellipse cx="302.349" cy="129.447" rx="7.606" ry="9.021" style="fill:#fff;stroke:#2a3641;stroke-width:4px;"/><path d="M321.896,168.613c2.491,10.925 12.542,-2.05 12.305,-4.279c0,0 0.863,-15.338 -1.872,-14.806c-4.978,0.967 -5.7,-18.51 -5.7,-18.51c-0.238,-2.23 -2.241,-3.847 -4.471,-3.61l-8.079,0.861c-2.23,0.237 -3.848,2.24 -3.61,4.47c0,0 6.132,17.623 -0.515,18.333c-10.518,1.124 0,14.022 0,14.022c0.238,2.229 -2.229,3.53 0,3.292l11.942,0.227Z" style="fill:#ffad0d;stroke:#2a3641;stroke-width:4px;"/><ellipse cx="316.722" cy="120.534" rx="16.638" ry="18.489" style="fill:#ffad0d;stroke:#2a3641;stroke-width:4px;"/><path d="M271.5,188.661l26.266,-37.852c1.151,-1.66 3.434,-2.072 5.093,-0.92l6.014,4.173c1.659,1.151 2.072,3.433 0.92,5.093l-26.623,38.366c-0.199,0.931 -0.758,1.779 -1.61,2.322l-0.332,0.478c-0.786,1.133 -2.099,1.684 -3.382,1.554l-40.507,22.06c-1.774,0.966 -3.998,0.31 -4.965,-1.464l-3.5,-6.428c-0.966,-1.774 -0.311,-3.998 1.463,-4.965l41.163,-22.417l0,0Z" style="fill:#ffad0d;stroke:#2a3641;stroke-width:4px;"/><path d="M302.378,107.852c5.096,-7.884 12.628,-12.091 16.809,-9.388c4.182,2.703 3.439,11.298 -1.656,19.182c-5.096,7.884 -12.628,12.09 -16.809,9.387c-4.182,-2.702 -3.44,-11.297 1.656,-19.181Z" style="fill:#fff;stroke:#2a3641;stroke-width:4px;"/><path d="M357.174,196.555l-22.844,-32.473c-1.151,-1.66 6.299,-2.501 3.163,-6.415l0.663,-7.778c1.66,-1.152 3.942,-0.74 5.093,0.92l28.566,41.166c0.091,0.131 0.173,0.267 0.244,0.406l37.491,20.417c1.774,0.966 2.43,3.191 1.464,4.965l-3.501,6.428c-0.966,1.774 -3.19,2.43 -4.964,1.464l-44.004,-23.965c-1.774,-0.966 -2.43,-3.19 -1.464,-4.964l0.093,-0.171l0,0Z" style="fill:#ffad0d;stroke:#2a3641;stroke-width:4px;"/><g><path d="M317.329,351.942c0,-0.938 -0.762,-1.701 -1.701,-1.701l-3.401,0c-0.939,0 -1.701,-1.495 -1.701,-0.557c1.635,3.112 1.609,8.503 0,11.654c0,0.939 0.762,1.701 1.701,1.701l3.401,0c0.939,0 1.701,-0.762 1.701,-1.701l0,-9.396l0,0Z" style="fill:#986f1c;stroke:#2a3641;stroke-width:4px;"/><path d="M343.846,360.291c1.896,-4.184 -9.084,-8.731 -13.232,-10.403c-3.597,-1.451 -2.13,-12.492 -8.628,-11.024c-1.635,-0.741 -5.243,-1.109 -8.861,-0.612c-1.902,0.262 -0.818,5.997 -1.974,8.547c-1.895,4.184 0.739,4.622 4.923,6.517l9.448,7.905c4.184,1.896 16.428,3.255 18.324,-0.93l0,0Z" style="fill:#986f1c;stroke:#2a3641;stroke-width:4px;"/></g><g><path d="M426.623,190.979c-0.924,0.165 -1.54,1.049 -1.375,1.973l0.598,3.348c0.165,0.924 -1.174,1.937 -0.25,1.772c2.777,-2.156 8.087,-3.078 11.473,-2.048c0.924,-0.165 1.54,-1.049 1.375,-1.973l-0.598,-3.348c-0.165,-0.924 -1.049,-1.541 -1.973,-1.376l-9.25,1.652l0,0Z" style="fill:#986f1c;stroke:#2a3641;stroke-width:4px;"/><path d="M430.182,163.407c-4.452,-1.131 -6.999,10.476 -7.916,14.854c-0.796,3.796 -11.923,4.292 -9.336,10.431c-0.442,1.74 -0.17,5.356 0.955,8.831c0.592,1.826 6.047,-0.249 8.76,0.441c4.453,1.13 4.421,-1.539 5.552,-5.992l6.121,-10.689c1.131,-4.453 0.317,-16.745 -4.136,-17.876l0,0Z" style="fill:#986f1c;stroke:#2a3641;stroke-width:4px;"/></g><path d="M345.372,237.894c0.48,-2.721 -3.536,-10.137 -11.841,-11.829c-5.472,-1.114 -13.907,1.687 -14.979,6.568c-0.816,3.714 -3.906,26 -3.524,31.546c1.408,20.44 6.153,6.833 -0.151,40.999c-2.5,13.546 -4.112,23.758 -2.95,37.862c10.052,2.396 12.874,0.246 12.874,0.246c0.634,0.112 2.634,-3.739 3.002,-5.826l17.569,-99.566l0,0Z" style="fill:#ffad0d;stroke:#2a3641;stroke-width:4px;"/><path d="M306.209,223.321c-0.04,-0.206 -0.07,-0.412 -0.089,-0.615c5.407,-17.889 -0.808,-42.232 -9.454,-63.287c-0.617,-6.363 1.411,-10.458 9.254,-11.774c2.87,1.46 4.798,12.607 7.629,15.853c2.681,3.073 6.285,3.093 8.347,2.9c2.115,-0.198 8.783,-1.854 10.459,-5.821c1.479,-3.501 -2.053,-14.004 0,-16.319c6.748,-0.654 12.596,4.053 13.213,10.416c-5.353,20.415 -3.731,39.982 5.686,58.603c0.266,2.733 -0.414,6.779 -1.81,10.556c0.084,0.617 0.128,1.278 0.128,1.989c0,11.241 -10.439,24.884 -24.239,30.486c-12.463,5.058 -24.369,-9.126 -24.369,-20.368c0,-4.764 1.961,-9.148 5.245,-12.619l0,0Z" style="fill:#fff;stroke:#2a3641;stroke-width:4px;"/><path d="M314.036,225.692c-2.55,1.065 -6.623,8.449 -3.563,16.353c2.017,5.207 8.93,10.795 13.616,9.062c3.567,-1.319 23.993,-10.753 28.455,-14.069c16.444,-12.222 2.429,-8.868 34.59,-22.011c12.751,-5.211 13.579,-9.185 27.01,-15.247c1.135,-10.636 2.972,-2.522 1.907,-5.071l-2.177,-5.304c-1.065,-2.549 -4,-3.754 -6.549,-2.689l-93.289,38.976l0,0Z" style="fill:#ffad0d;stroke:#2a3641;stroke-width:4px;"/><path d="M242.121,223.18c1.896,-4.184 0.038,-9.121 -4.147,-11.017c-3.597,-1.45 -11.913,-2.944 -13.978,-5.151c-4.185,-1.896 -5.366,0.482 -7.262,4.667c-1.896,4.184 0.185,7.698 4.37,9.594l10,4.828c4.185,1.895 9.121,1.264 11.017,-2.921Z" style="fill:#ffad0d;stroke:#2a3641;stroke-width:4px;"/><path d="M402.352,220.287c0.54,-4.563 4.682,-7.828 9.244,-7.288c3.829,0.617 11.721,3.638 14.629,2.815c4.563,0.54 4.345,3.186 3.805,7.748c-0.54,4.563 -4.137,6.495 -8.7,5.955l-11.056,-1.036c-4.562,-0.54 -8.462,-3.632 -7.922,-8.194l0,0Z" style="fill:#ffad0d;stroke:#2a3641;stroke-width:4px;"/><path d="M320.154,90.756c-1.26,-3.108 -4.806,-4.609 -7.915,-3.349l-13.701,5.553c-3.108,1.26 -4.609,4.807 -3.349,7.915l4.566,11.264c1.26,3.108 4.806,4.609 7.914,3.349l13.701,-5.553c3.109,-1.26 4.609,-4.807 3.35,-7.915l-4.566,-11.264Z" style="fill:#986f1c;stroke:#2a3641;stroke-width:4px;"/><path d="M331.209,102.326c-0.289,-0.717 -1.105,-1.065 -1.822,-0.777l-33.765,13.578c-0.718,0.288 -1.066,1.104 -0.777,1.822l1.045,2.598c0.288,0.718 1.104,1.066 1.822,0.777l33.765,-13.577c0.717,-0.289 1.065,-1.105 0.777,-1.822l-1.045,-2.599Z" style="fill:#986f1c;stroke:#2a3641;stroke-width:4px;"/></g></g><g id="CinderellaDance"><g id="Prince"><path d="M502.084,353.211c-0.656,-3.074 15.246,-7.944 18.32,-8.601l4.869,-3.762c3.074,-0.656 6.102,1.307 6.759,4.381c0.656,3.074 -1.307,6.102 -4.381,6.759l-18.812,2.081c-3.074,0.656 -6.098,2.216 -6.755,-0.858l0,0Z" style="fill:#2a3641;stroke:#2a3641;stroke-width:4px;"/><path d="M476.894,340.65c-0.413,-3.116 15.821,-6.726 18.937,-7.14l5.149,-3.369c3.116,-0.414 5.982,1.78 6.395,4.896c0.414,3.116 -1.78,5.982 -4.896,6.395l-18.917,0.602c-3.116,0.414 -6.254,1.732 -6.668,-1.384l0,0Z" style="fill:#2a3641;stroke:#2a3641;stroke-width:4px;"/><path d="M515.744,264.636c-0.07,-2.633 2.01,-4.827 4.643,-4.897l9.54,-0.254c2.632,-0.07 4.826,2.011 4.896,4.643c-0.21,27.025 -2.744,52.197 -2.087,76.321c0.07,2.632 -1.631,4.586 -1.284,7.891l-8.728,-0.703c-2.633,0.07 -4.092,-2.011 -4.162,-4.643c-0.045,-26.216 -1.047,-52.328 -2.818,-78.358Z" style="fill:#986f1c;stroke:#2a3641;stroke-width:4px;"/><path d="M492.522,257.052c0.024,-2.633 2.182,-4.752 4.815,-4.727l9.543,0.088c2.633,0.025 4.752,2.183 4.727,4.816c-1.179,27 -4.147,55.018 -4.356,79.149c-0.018,2.162 -3.842,-3.314 -3.613,0l-7.117,0c-2.634,-0.024 -4.019,-0.16 -3.993,-0.917c0.895,-26.2 0.83,-52.332 -0.006,-78.409Z" style="fill:#986f1c;stroke:#2a3641;stroke-width:4px;"/><path d="M512.543,186.088c-0.051,-3.648 2.869,-6.651 6.517,-6.702c3.648,-0.051 6.651,2.869 6.702,6.517l0.242,17.385c0.051,3.648 -2.869,6.651 -6.517,6.702c-3.648,0.05 -6.651,-2.87 -6.702,-6.518l-0.242,-17.384l0,0Z" style="fill:#ffad0d;stroke:#2a3641;stroke-width:4px;"/><path d="M494.797,262.199c-1.719,-6.723 -2.486,-14.309 -2.226,-21.996c0.82,-24.168 4.509,-45.995 23.171,-45.556c26.446,0.621 21.966,22.892 21.146,47.06c-0.261,7.686 -1.541,15.203 -3.712,21.794l-38.379,-1.302l0,0Z" style="fill:#fff;stroke:#2a3641;stroke-width:4px;"/><ellipse cx="514.963" cy="165.808" rx="18.394" ry="21.241" style="fill:#ffad0d;stroke:#2a3641;stroke-width:4px;"/><path d="M497.15,249.03c-1.898,-0.04 -3.471,1.469 -3.511,3.367l-0.144,6.879c-0.039,1.898 1.47,3.472 3.368,3.511l34.546,0.722c1.898,0.039 3.471,-1.47 3.511,-3.368l0.143,-6.879c0.04,-1.898 -1.469,-3.471 -3.367,-3.511l-34.546,-0.721l0,0Z" style="fill:#ffad0d;stroke:#2a3641;stroke-width:4px;"/><path d="M535.533,162.374c0.07,-9.476 -3.131,-13.701 -7.755,-13.735c-4.623,-0.034 -2.799,7.632 -2.869,17.108c-0.07,9.476 2.579,11.806 7.203,11.84c4.624,0.034 3.351,-5.737 3.421,-15.213l0,0Z" style="fill:#fff;stroke:#2a3641;stroke-width:4px;"/><path d="M515.448,140.274c-7.693,1.441 -6.439,-0.262 -17.311,-0.211c-9.101,0.042 -0.952,22.781 16.342,16.94c6.095,-2.059 17.358,-2.755 17.626,-7.371c0.267,-4.617 -7.342,-11.102 -16.657,-9.358l0,0Z" style="fill:#fff;stroke:#2a3641;stroke-width:4px;"/><path d="M501.562,247.517c1.545,0.188 3.16,-0.282 4.387,-1.425l28.935,-26.942c2.208,-2.056 2.331,-5.517 0.275,-7.725c-2.055,-2.207 -5.516,-2.331 -7.724,-0.275l-27.723,23.698l-21.622,-2.896c-2.972,-0.514 -2.744,2.119 -3.257,5.091c-0.514,2.973 -1.665,5.803 1.307,6.317l23.827,4.116c0.541,0.094 1.077,0.104 1.595,0.041l0,0Z" style="fill:#fff;stroke:#2a3641;stroke-width:4px;"/><path d="M461.33,234.12c0.502,-3.128 4.677,-3.258 7.805,-2.756l7.621,1.222c3.128,0.502 5.26,3.449 4.758,6.578c-0.502,3.128 -3.449,5.26 -6.577,4.758l-7.621,-1.223c-3.128,-0.502 -6.488,-5.451 -5.986,-8.579Z" style="fill:#ffad0d;stroke:#2a3641;stroke-width:4px;"/><path d="M532.334,222.986c1.365,-0.529 2.571,-1.407 3.496,-2.547c2.911,-3.582 2.399,-8.827 -1.143,-11.704c-3.541,-2.877 -8.779,-2.305 -11.69,1.278c-0.926,1.139 -1.539,2.5 -1.777,3.944l11.114,9.029Z" style="fill:#986f1c;stroke:#2a3641;stroke-width:4px;"/><path d="M531.748,145.713c0.2,-0.731 -0.23,-1.488 -0.961,-1.688c0,0 -7.72,-2.122 -11.58,-3.182c-3.953,-1.087 -12.136,-3.335 -12.136,-3.335c-0.731,-0.201 -1.487,0.229 -1.688,0.96l-0.728,2.649c-0.201,0.731 0.229,1.487 0.96,1.688c0,0 7.866,3.452 11.692,4.503c3.952,1.087 12.024,2.014 12.024,2.014c0.731,0.201 1.488,-0.229 1.689,-0.96l0.728,-2.649l0,0Z" style="fill:#ffad0d;stroke:#2a3641;stroke-width:4px;"/><path d="M515.152,142.185l-7.835,-2.153l4.701,-9.041l-0.521,9.162l4.234,-8.142l-0.579,10.174l0,0Zm13.541,3.721l-4.122,-1.133l4.701,-9.041l-0.579,10.174l0,0Zm-9.013,-2.531l-4.123,-1.133l4.702,-9.041l-0.579,10.174Zm4.514,1.24l-4.123,-1.133l4.701,-9.041l-0.578,10.174Z" style="fill:#ffad0d;"/></g><g id="Cinderella"><path d="M382.141,180.029c-0.051,-3.648 2.869,-6.651 6.517,-6.702c3.648,-0.051 6.651,2.869 6.702,6.517l0.242,17.385c0.051,3.648 -2.869,6.651 -6.517,6.702c-3.648,0.05 -6.651,-2.87 -6.702,-6.518l-0.242,-17.384Z" style="fill:#986f1c;stroke:#2a3641;stroke-width:4px;"/><path d="M408.536,251.83c6.485,0.959 2.111,8.999 2.111,2.464c0,-6.503 -0.061,-8.982 -3.489,-22.879c-1.415,-5.736 -0.064,-9.59 2.719,-15.349c6.11,-12.646 -12.264,-13.845 -23.631,-22.832c-4.746,-3.752 -10.813,-3.563 -13.215,7.169c-1.876,8.377 -2.512,23.127 -3.755,32.567c-0.85,6.457 -4.173,20.739 -1.93,26.398l41.19,-7.538l0,0Z" style="fill:#fffdf8;stroke:#2a3641;stroke-width:4px;"/><path d="M441.796,373.606c17.806,-2.276 24.157,4.472 24.157,-10.771c0,-22 -27.715,-73.179 -36.26,-90.883c-14.311,-29.652 -23.088,-36.538 -41.323,-35.028c-14.448,1.197 -30.659,8.578 -36.418,33.611c-4.495,19.539 -21.446,37.635 -24.425,59.653c-2.037,15.063 -23.946,28.286 -18.571,41.487l132.84,1.931Z" style="fill:#ffad0d;stroke:#2a3641;stroke-width:4px;"/><ellipse cx="389.189" cy="163.414" rx="18.394" ry="21.241" style="fill:#986f1c;stroke:#2a3641;stroke-width:4px;"/><path d="M417.202,244.09c-1.545,0.188 -3.16,-0.281 -4.387,-1.424l-28.935,-26.942c-2.208,-2.056 -2.331,-5.517 -0.275,-7.725c2.055,-2.207 5.517,-2.331 7.724,-0.275l27.723,23.698l21.622,-2.896c2.972,-0.514 2.744,2.119 3.258,5.091c0.513,2.973 1.664,5.803 -1.308,6.316l-23.827,4.117c-0.541,0.094 -1.077,0.104 -1.595,0.04Z" style="fill:#fff;stroke:#2a3641;stroke-width:4px;"/><path d="M457.434,230.693c-0.502,-3.128 -4.677,-3.258 -7.805,-2.756l-7.621,1.223c-3.128,0.502 -5.26,3.449 -4.758,6.577c0.502,3.129 3.449,5.261 6.577,4.759l7.621,-1.223c3.128,-0.502 6.488,-5.451 5.986,-8.58Z" style="fill:#986f1c;stroke:#2a3641;stroke-width:4px;"/><path d="M375.149,152.222c-0.052,-0.32 -0.078,-0.645 -0.078,-0.974c0,-5.009 6.184,-9.075 13.801,-9.075c7.617,0 13.801,4.066 13.801,9.075c0,4.979 -6.113,9.027 -13.669,9.074c-0.27,1.823 -0.841,3.725 -1.729,5.595c-3.265,6.881 -9.59,10.724 -14.115,8.577c-4.525,-2.148 -5.547,-9.478 -2.281,-16.359c1.126,-2.373 2.616,-4.384 4.27,-5.913Z" style="fill:#fff;stroke:#2a3641;stroke-width:4px;"/><path d="M369.621,141.282c2.318,-4.884 7.874,-7.106 12.398,-4.959c4.525,2.148 6.316,7.857 3.998,12.741c-2.318,4.884 -7.874,7.106 -12.398,4.959c-4.525,-2.148 -6.316,-7.857 -3.998,-12.741l0,0Z" style="fill:#fff;stroke:#2a3641;stroke-width:4px;"/></g><g id="Stars"><rect x="269.778" y="58.611" width="7.568" height="76.894" style="fill:#fff;stroke:#2a3641;stroke-width:4px;"/><rect x="446.216" y="58.653" width="6.429" height="47.171" style="fill:#fff;stroke:#2a3641;stroke-width:4px;"/><rect x="607.448" y="58.653" width="7.568" height="76.894" style="fill:#fff;stroke:#2a3641;stroke-width:4px;"/><path d="M449.43,96.867l4.818,14.774l15.59,0l-12.613,9.131l4.818,14.774l-12.613,-9.131l-12.613,9.131l4.818,-14.774l-12.613,-9.131l15.59,0l4.818,-14.774l0,0Z" style="fill:#fff;"/><path d="M611.32,127.071l4.818,14.774l15.59,0l-12.613,9.131l4.818,14.774l-12.613,-9.131l-12.613,9.131l4.818,-14.774l-12.613,-9.131l15.59,0l4.818,-14.774l0,0Z" style="fill:#fff;"/><path d="M273.549,127.071l4.818,14.774l15.59,0l-12.613,9.131l4.818,14.774l-12.613,-9.131l-12.613,9.131l4.818,-14.774l-12.613,-9.131l15.591,0l4.817,-14.774l0,0Z" style="fill:#fff;"/></g></g><path id="CurtainTopBackgroundBottom" d="M842.507,-5.175c28.6,-14.193 68.848,-24.538 98.549,-24.538c51.258,0 51.817,30.812 51.817,59.038c0,28.226 -41.615,51.141 -92.873,51.141c-29.701,0 -56.164,-7.694 -73.17,-19.657c-17.005,11.963 -43.468,19.657 -73.17,19.657c-31.669,0 -59.658,-8.747 -76.424,-22.09c-16.767,13.343 -44.755,22.09 -76.425,22.09c-30.22,0 -57.088,-7.965 -74.053,-20.287c-16.964,12.322 -43.832,20.287 -74.052,20.287c-33.432,0 -62.761,-9.748 -79.118,-24.359c-16.357,14.611 -45.686,24.359 -79.118,24.359c-29.249,0 -55.358,-7.461 -72.387,-19.113c-17.029,11.652 -43.138,19.113 -72.387,19.113c-30.697,0 -57.935,-8.218 -74.848,-20.874c-16.913,12.656 -44.151,20.874 -74.848,20.874c-51.258,0 -92.873,-22.915 -92.873,-51.141c0,-28.226 82.671,-59.038 133.929,-59.038c30.697,0 43.211,11.051 48.311,25.978c28.726,-14.928 70.688,-25.978 101.385,-25.978c29.249,0 41.99,10.033 47.539,23.893c28.508,-13.86 67.986,-23.893 97.235,-23.893c33.432,0 45.296,13.107 49.505,30.055c28.505,-16.948 75.3,-30.055 108.731,-30.055c30.22,0 42.818,10.709 48.068,25.285c28.679,-14.575 69.817,-25.285 100.037,-25.285c31.67,0 43.986,11.762 48.774,27.409c28.745,-15.647 72.406,-27.409 104.076,-27.409c29.701,0 42.38,10.345 47.79,24.538l0,0Z" style="fill:#e79701;stroke:#2a3641;stroke-width:4px;"/><g id="LeftCurtainLargeGroup"><path id="LeftCurtainLarge" d="M468.253,33.177l-449.729,6.304l0,371.562l452.101,0c0,0 9.852,-114.425 14.483,-178.243c4.781,-65.876 -16.855,-199.623 -16.855,-199.623l0,0Z" style="fill:#ffad0d;stroke:#2a3641;stroke-width:4px;"/><path id="LeftCurtainLarge1" d="M424.279,32.632l-449.728,6.303l0,371.562l452.101,0c0,0 9.852,-114.424 14.483,-178.242c4.781,-65.876 -16.856,-199.623 -16.856,-199.623l0,0Z" style="fill:#e79701;stroke:#2a3641;stroke-width:4px;"/><path id="LeftCurtainLarge2" d="M374.202,34.744l-449.728,6.304l0,371.562l452.101,0c0,0 9.852,-114.424 14.483,-178.242c4.78,-65.876 -16.856,-199.624 -16.856,-199.624l0,0Z" style="fill:#ffad0d;stroke:#2a3641;stroke-width:4px;"/><path id="LeftCurtainLarge3" d="M314.379,35.055l-449.729,6.304l0,371.562l452.101,0c0,0 9.852,-114.425 14.483,-178.242c4.781,-65.876 -16.855,-199.624 -16.855,-199.624l0,0Z" style="fill:#e79701;stroke:#2a3641;stroke-width:4px;"/><path id="LeftCurtainLarge4" d="M260.012,36.61l-449.728,6.304l0,371.562l452.1,0c0,0 9.852,-114.425 14.483,-178.242c4.781,-65.876 -16.855,-199.624 -16.855,-199.624l0,0Z" style="fill:#ffad0d;stroke:#2a3641;stroke-width:4px;"/><path id="LeftCurtainLarge5" d="M204.921,39.503l-449.729,6.303l0,371.562l452.101,0c0,0 9.852,-114.424 14.483,-178.242c4.781,-65.876 -16.855,-199.623 -16.855,-199.623l0,0Z" style="fill:#e79701;stroke:#2a3641;stroke-width:4px;"/><path id="LeftCurtainLarge6" d="M154.49,39.187l-449.728,6.304l0,371.562l452.1,0c0,0 9.852,-114.425 14.483,-178.242c4.781,-65.876 -16.855,-199.624 -16.855,-199.624l0,0Z" style="fill:#ffad0d;stroke:#2a3641;stroke-width:4px;"/></g><g id="RightCurtainLargeGroup"><path id="RightCurtainLarge" d="M466.976,33.177l449.728,6.304l0,371.562l-452.101,0c0,0 -9.852,-114.425 -14.483,-178.243c-4.781,-65.876 16.856,-199.623 16.856,-199.623l0,0Z" style="fill:#ffad0d;stroke:#2a3641;stroke-width:4px;"/><path id="RightCurtainLarge1" d="M510.949,32.632l449.728,6.303l0,371.562l-452.101,0c0,0 -9.852,-114.424 -14.483,-178.242c-4.781,-65.876 16.856,-199.623 16.856,-199.623l0,0Z" style="fill:#e79701;stroke:#2a3641;stroke-width:4px;"/><path id="RightCurtainLarge2" d="M561.026,34.744l449.728,6.304l0,371.562l-452.101,0c0,0 -9.851,-114.424 -14.483,-178.242c-4.78,-65.876 16.856,-199.624 16.856,-199.624l0,0Z" style="fill:#ffad0d;stroke:#2a3641;stroke-width:4px;"/><path id="RightCurtainLarge3" d="M620.85,35.055l449.728,6.304l0,371.562l-452.101,0c0,0 -9.852,-114.425 -14.483,-178.242c-4.781,-65.876 16.856,-199.624 16.856,-199.624l0,0Z" style="fill:#e79701;stroke:#2a3641;stroke-width:4px;"/><path id="RightCurtainLarge4" d="M675.217,36.61l449.728,6.304l0,371.562l-452.101,0c0,0 -9.852,-114.425 -14.483,-178.242c-4.781,-65.876 16.856,-199.624 16.856,-199.624l0,0Z" style="fill:#ffad0d;stroke:#2a3641;stroke-width:4px;"/><path id="RightCurtainLarge5" d="M730.308,39.503l449.728,6.303l0,371.562l-452.101,0c0,0 -9.852,-114.424 -14.483,-178.242c-4.781,-65.876 16.856,-199.623 16.856,-199.623l0,0Z" style="fill:#e79701;stroke:#2a3641;stroke-width:4px;"/><path id="RightCurtainLarge6" d="M780.739,39.187l449.728,6.304l0,371.562l-452.101,0c0,0 -9.852,-114.425 -14.483,-178.242c-4.781,-65.876 16.856,-199.624 16.856,-199.624l0,0Z" style="fill:#ffad0d;stroke:#2a3641;stroke-width:4px;"/></g><g id="LeftCurtain"><path d="M170.168,0l-170.168,0l0,402.995l146.748,0c0,0 -1.504,-58.253 -15.311,-89.476c-13.56,-30.665 -46.655,-96.118 -46.655,-96.118c0,0 34.8,-42.093 48.607,-78.036c10.999,-28.63 36.779,-139.365 36.779,-139.365l0,0Z" style="fill:#ffad0d;stroke:#2a3641;stroke-width:4px;"/><path d="M140.601,0.009l-170.168,0l0,402.986l146.748,0c0,0 -1.503,-58.252 -15.31,-89.474c-13.561,-30.665 -46.656,-96.116 -46.656,-96.116c0,0 34.8,-42.092 48.608,-78.034c10.998,-28.63 36.778,-139.362 36.778,-139.362l0,0Z" style="fill:#e79701;stroke:#2a3641;stroke-width:4px;"/><path d="M104.934,-0.247l-170.167,0l0,402.987l146.747,0c0,0 -1.503,-58.252 -15.31,-89.474c-13.561,-30.665 -46.656,-96.116 -46.656,-96.116c0,0 34.801,-42.093 48.608,-78.035c10.998,-28.63 36.778,-139.362 36.778,-139.362l0,0Z" style="fill:#ffad0d;stroke:#2a3641;stroke-width:4px;"/><path d="M64.403,0.009l-170.168,0l0,402.986l146.748,0c0,0 -1.503,-58.252 -15.31,-89.474c-13.561,-30.665 -46.656,-96.116 -46.656,-96.116c0,0 34.8,-42.092 48.608,-78.034c10.998,-28.63 36.778,-139.362 36.778,-139.362l0,0Z" style="fill:#e79701;stroke:#2a3641;stroke-width:4px;"/><path d="M92.084,219.39c0,-3.097 -2.514,-5.611 -5.61,-5.611l-89.072,0c-3.096,0 -5.61,2.514 -5.61,5.611l0,11.22c0,3.097 2.514,5.611 5.61,5.611l89.072,0c3.096,0 5.61,-2.514 5.61,-5.611l0,-11.22Z" style="fill:#ffad0d;stroke:#2a3641;stroke-width:4px;"/></g><g id="RightCurtain"><path d="M727.318,0.247l170.168,0l0,402.995l-146.748,0c0,0 1.504,-58.253 15.311,-89.476c13.561,-30.665 46.656,-96.118 46.656,-96.118c0,0 -34.801,-42.093 -48.608,-78.036c-10.999,-28.63 -36.779,-139.365 -36.779,-139.365l0,0Z" style="fill:#ffad0d;stroke:#2a3641;stroke-width:4px;"/><path d="M756.885,0.256l170.168,0l0,402.986l-146.748,0c0,0 1.503,-58.251 15.311,-89.474c13.56,-30.665 46.655,-96.116 46.655,-96.116c0,0 -34.8,-42.092 -48.608,-78.034c-10.998,-28.63 -36.778,-139.362 -36.778,-139.362l0,0Z" style="fill:#e79701;stroke:#2a3641;stroke-width:4px;"/><path d="M792.552,0l170.168,0l0,402.987l-146.748,0c0,0 1.503,-58.252 15.31,-89.474c13.561,-30.665 46.656,-96.116 46.656,-96.116c0,0 -34.801,-42.093 -48.608,-78.035c-10.998,-28.63 -36.778,-139.362 -36.778,-139.362l0,0Z" style="fill:#ffad0d;stroke:#2a3641;stroke-width:4px;"/><path d="M833.083,0.256l170.168,0l0,402.986l-146.748,0c0,0 1.503,-58.251 15.311,-89.474c13.56,-30.665 46.655,-96.116 46.655,-96.116c0,0 -34.8,-42.092 -48.608,-78.034c-10.998,-28.63 -36.778,-139.362 -36.778,-139.362l0,0Z" style="fill:#e79701;stroke:#2a3641;stroke-width:4px;"/><path d="M805.402,219.637c0,-3.097 2.514,-5.611 5.611,-5.611l89.071,0c3.096,0 5.61,2.514 5.61,5.611l0,11.22c0,3.097 -2.514,5.611 -5.61,5.611l-89.071,0c-3.097,0 -5.611,-2.514 -5.611,-5.611l0,-11.22Z" style="fill:#ffad0d;stroke:#2a3641;stroke-width:4px;"/></g><g id="TopCurtainMain"><path id="CurtainTopBackgroundMiddle" d="M842.507,-26.111c28.6,-14.194 68.848,-24.539 98.549,-24.539c51.258,0 51.817,30.813 51.817,59.038c0,28.226 -41.615,51.142 -92.873,51.142c-29.701,0 -56.164,-7.694 -73.17,-19.657c-17.005,11.963 -43.468,19.657 -73.17,19.657c-31.669,0 -59.658,-8.748 -76.424,-22.091c-16.767,13.343 -44.755,22.091 -76.425,22.091c-30.22,0 -57.088,-7.965 -74.053,-20.288c-16.964,12.323 -43.832,20.288 -74.052,20.288c-33.432,0 -62.761,-9.748 -79.118,-24.36c-16.357,14.612 -45.686,24.36 -79.118,24.36c-29.249,0 -55.358,-7.462 -72.387,-19.114c-17.029,11.652 -43.138,19.114 -72.387,19.114c-30.697,0 -57.935,-8.219 -74.848,-20.875c-16.913,12.656 -44.151,20.875 -74.848,20.875c-51.258,0 -92.873,-22.916 -92.873,-51.142c0,-28.225 82.671,-59.038 133.929,-59.038c30.697,0 43.211,11.051 48.311,25.979c28.726,-14.928 70.688,-25.979 101.385,-25.979c29.249,0 41.99,10.033 47.539,23.893c28.508,-13.86 67.986,-23.893 97.235,-23.893c33.432,0 45.296,13.107 49.505,30.056c28.505,-16.949 75.3,-30.056 108.731,-30.056c30.22,0 42.818,10.71 48.068,25.286c28.679,-14.576 69.817,-25.286 100.037,-25.286c31.67,0 43.986,11.762 48.774,27.409c28.745,-15.647 72.406,-27.409 104.076,-27.409c29.701,0 42.38,10.346 47.79,24.539l0,0Z" style="fill:#ffad0d;stroke:#2a3641;stroke-width:5px;"/><path id="TopCurtain" d="M849.101,-52.684c28.6,-14.193 68.848,-24.538 98.549,-24.538c51.259,0 51.817,30.812 51.817,59.038c0,28.226 -41.615,51.142 -92.873,51.142c-29.701,0 -56.164,-7.694 -73.17,-19.657c-17.005,11.963 -43.468,19.657 -73.169,19.657c-31.67,0 -59.659,-8.748 -76.425,-22.091c-16.767,13.343 -44.755,22.091 -76.425,22.091c-30.22,0 -57.088,-7.965 -74.053,-20.288c-16.964,12.323 -43.832,20.288 -74.052,20.288c-33.432,0 -62.761,-9.749 -79.118,-24.36c-16.357,14.611 -45.686,24.36 -79.118,24.36c-29.249,0 -55.358,-7.462 -72.387,-19.114c-17.029,11.652 -43.138,19.114 -72.387,19.114c-30.697,0 -57.935,-8.219 -74.848,-20.875c-16.913,12.656 -44.151,20.875 -74.848,20.875c-51.258,0 -92.873,-22.916 -92.873,-51.142c0,-28.226 82.671,-59.038 133.929,-59.038c30.697,0 43.211,11.051 48.311,25.978c28.726,-14.928 70.688,-25.978 101.385,-25.978c29.249,0 41.99,10.033 47.539,23.893c28.508,-13.86 67.986,-23.893 97.235,-23.893c33.432,0 45.296,13.107 49.505,30.056c28.505,-16.949 75.3,-30.056 108.731,-30.056c30.22,0 42.818,10.71 48.068,25.285c28.679,-14.575 69.817,-25.285 100.037,-25.285c31.67,0 43.986,11.762 48.774,27.409c28.745,-15.647 72.406,-27.409 104.076,-27.409c29.701,0 42.38,10.345 47.79,24.538l0,0Z" style="fill:#e79701;stroke:#2a3641;stroke-width:5px;"/></g><rect x="0.075" y="-0.152" width="900.956" height="5.638" style="fill:#2a3641;"/><rect x="-1.428" y="377.758" width="907.104" height="6.242" style="fill:#2a3641;"/><rect x="-1.428" y="384.352" width="907.104" height="4.028" style="fill:#2a3641;"/></svg>