<?xml version="1.0" encoding="UTF-8" standalone="no"?><!DOCTYPE svg PUBLIC "-//W3C//DTD SVG 1.1//EN" "http://www.w3.org/Graphics/SVG/1.1/DTD/svg11.dtd"><svg width="100%" height="100%" viewBox="0 0 850 250" version="1.1" xmlns="http://www.w3.org/2000/svg" xmlns:xlink="http://www.w3.org/1999/xlink" xml:space="preserve" style="fill-rule:evenodd;clip-rule:evenodd;stroke-linecap:round;stroke-linejoin:round;stroke-miterlimit:1.5;"><rect id="Background" x="-25" y="0" width="900" height="252.962" style="fill:#2a3641;"/><g><rect id="BoMReview" x="523.062" y="77.239" width="240.884" height="236.757" style="fill:#986f1c;"/><path d="M664.959,104.762c0,-1.634 -1.492,-2.96 -3.33,-2.96l-122.58,0c-1.838,0 -3.33,1.326 -3.33,2.96l0,5.92c0,1.634 1.492,2.961 3.33,2.961l122.58,0c1.838,0 3.33,-1.327 3.33,-2.961l0,-5.92Z" style="fill:#ffad0d;"/><g><path d="M651.129,138.851c0,-0.704 -0.556,-1.275 -1.241,-1.275l-97.53,0c-0.685,0 -1.242,0.571 -1.242,1.275l0,2.55c0,0.704 0.557,1.275 1.242,1.275l97.53,0c0.685,0 1.241,-0.571 1.241,-1.275l0,-2.55Z" style="fill:#ffad0d;"/><circle cx="539.839" cy="140.126" r="4.306" style="fill:#ffad0d;stroke:#2a3641;stroke-width:1px;"/></g><g><path d="M651.129,198.753c0,-0.704 -0.556,-1.276 -1.241,-1.276l-97.53,0c-0.685,0 -1.242,0.572 -1.242,1.276l0,2.549c0,0.705 0.557,1.276 1.242,1.276l97.53,0c0.685,0 1.241,-0.571 1.241,-1.276l0,-2.549Z" style="fill:#ffad0d;"/><circle cx="539.839" cy="200.028" r="4.306" style="fill:#ffad0d;stroke:#2a3641;stroke-width:1px;"/></g><g><path d="M621.372,152.563c0,-0.704 -0.391,-1.275 -0.873,-1.275l-68.511,0c-0.481,0 -0.872,0.571 -0.872,1.275l0,2.55c0,0.704 0.391,1.275 0.872,1.275l68.511,0c0.482,0 0.873,-0.571 0.873,-1.275l0,-2.55Z" style="fill:#ffad0d;"/><circle cx="539.839" cy="153.838" r="4.306" style="fill:#ffad0d;stroke:#2a3641;stroke-width:1px;"/></g><g><path d="M621.372,182.46c0,-0.704 -0.391,-1.275 -0.873,-1.275l-68.511,0c-0.481,0 -0.872,0.571 -0.872,1.275l0,2.55c0,0.704 0.391,1.275 0.872,1.275l68.511,0c0.482,0 0.873,-0.571 0.873,-1.275l0,-2.55Z" style="fill:#ffad0d;"/><circle cx="539.839" cy="183.735" r="4.306" style="fill:#ffad0d;stroke:#2a3641;stroke-width:1px;"/></g><g><path d="M636.04,167.371c0,-0.704 -0.472,-1.275 -1.054,-1.275l-82.816,0c-0.581,0 -1.054,0.571 -1.054,1.275l0,2.55c0,0.704 0.473,1.275 1.054,1.275l82.816,0c0.582,0 1.054,-0.571 1.054,-1.275l0,-2.55Z" style="fill:#ffad0d;"/><circle cx="539.839" cy="168.646" r="4.306" style="fill:#ffad0d;stroke:#2a3641;stroke-width:1px;"/></g><g><path d="M672.439,216.422c0,-0.704 -0.675,-1.275 -1.506,-1.275l-118.311,0c-0.831,0 -1.506,0.571 -1.506,1.275l0,2.55c0,0.704 0.675,1.275 1.506,1.275l118.311,0c0.831,0 1.506,-0.571 1.506,-1.275l0,-2.55Z" style="fill:#ffad0d;"/><circle cx="539.839" cy="217.697" r="4.306" style="fill:#ffad0d;stroke:#2a3641;stroke-width:1px;"/></g><g><path d="M605.5,236.499c0,-0.704 -0.303,-1.275 -0.675,-1.275l-53.034,0c-0.372,0 -0.675,0.571 -0.675,1.275l0,2.55c0,0.704 0.303,1.275 0.675,1.275l53.034,0c0.372,0 0.675,-0.571 0.675,-1.275l0,-2.55Z" style="fill:#ffad0d;"/><circle cx="539.839" cy="237.774" r="4.306" style="fill:#ffad0d;stroke:#2a3641;stroke-width:1px;"/></g><rect x="689.008" y="96.632" width="50.325" height="22.183" style="fill:#ffad0d;"/></g><g><rect x="250.239" y="89.42" width="50.325" height="22.183" style="fill:#2a3641;"/><rect id="BoMReview1" x="77.557" y="45.826" width="317.473" height="236.757" style="fill:#ffad0d;"/><path d="M283.143,69.985c0,-1.634 -2.15,-2.96 -4.799,-2.96l-176.615,0c-2.65,0 -4.799,1.326 -4.799,2.96l0,5.92c0,1.634 2.149,2.961 4.799,2.961l176.615,0c2.649,0 4.799,-1.327 4.799,-2.961l0,-5.92Z" style="fill:#986f1c;"/><g><path d="M212.526,100.509c0,-0.704 -0.556,-1.275 -1.242,-1.275l-97.529,0c-0.686,0 -1.242,0.571 -1.242,1.275l0,2.55c0,0.704 0.556,1.275 1.242,1.275l97.529,0c0.686,0 1.242,-0.571 1.242,-1.275l0,-2.55Z" style="fill:#986f1c;stroke:#986f1c;stroke-width:1px;stroke-linecap:butt;stroke-miterlimit:1.41421;"/><circle cx="101.236" cy="101.784" r="4.306" style="fill:#986f1c;stroke:#986f1c;stroke-width:1px;"/></g><g><path d="M212.526,160.411c0,-0.705 -0.556,-1.276 -1.242,-1.276l-97.529,0c-0.686,0 -1.242,0.571 -1.242,1.276l0,2.549c0,0.705 0.556,1.276 1.242,1.276l97.529,0c0.686,0 1.242,-0.571 1.242,-1.276l0,-2.549Z" style="fill:#986f1c;stroke:#986f1c;stroke-width:1px;stroke-linecap:butt;stroke-miterlimit:1.41421;"/><circle cx="101.236" cy="161.686" r="4.306" style="fill:#986f1c;stroke:#986f1c;stroke-width:1px;"/></g><g><path d="M182.768,114.221c0,-0.704 -0.39,-1.275 -0.872,-1.275l-68.511,0c-0.481,0 -0.872,0.571 -0.872,1.275l0,2.55c0,0.704 0.391,1.275 0.872,1.275l68.511,0c0.482,0 0.872,-0.571 0.872,-1.275l0,-2.55Z" style="fill:#986f1c;stroke:#986f1c;stroke-width:1px;stroke-linecap:butt;stroke-miterlimit:1.41421;"/><circle cx="101.236" cy="115.496" r="4.306" style="fill:#986f1c;stroke:#986f1c;stroke-width:1px;"/></g><g><path d="M182.768,144.118c0,-0.704 -0.39,-1.275 -0.872,-1.275l-68.511,0c-0.481,0 -0.872,0.571 -0.872,1.275l0,2.55c0,0.704 0.391,1.275 0.872,1.275l68.511,0c0.482,0 0.872,-0.571 0.872,-1.275l0,-2.55Z" style="fill:#986f1c;stroke:#986f1c;stroke-width:1px;stroke-linecap:butt;stroke-miterlimit:1.41421;"/><circle cx="101.236" cy="145.393" r="4.306" style="fill:#986f1c;stroke:#986f1c;stroke-width:1px;"/></g><g><path d="M197.437,129.029c0,-0.704 -0.473,-1.275 -1.054,-1.275l-82.816,0c-0.582,0 -1.054,0.571 -1.054,1.275l0,2.55c0,0.704 0.472,1.275 1.054,1.275l82.816,0c0.581,0 1.054,-0.571 1.054,-1.275l0,-2.55Z" style="fill:#986f1c;stroke:#986f1c;stroke-width:1px;stroke-linecap:butt;stroke-miterlimit:1.41421;"/><circle cx="101.236" cy="130.304" r="4.306" style="fill:#986f1c;stroke:#986f1c;stroke-width:1px;"/></g><g><path d="M233.836,178.08c0,-0.704 -0.675,-1.275 -1.506,-1.275l-118.311,0c-0.831,0 -1.506,0.571 -1.506,1.275l0,2.55c0,0.704 0.675,1.275 1.506,1.275l118.311,0c0.831,0 1.506,-0.571 1.506,-1.275l0,-2.55Z" style="fill:#986f1c;stroke:#986f1c;stroke-width:1px;stroke-linecap:butt;stroke-miterlimit:1.41421;"/><circle cx="101.236" cy="179.355" r="4.306" style="fill:#986f1c;stroke:#986f1c;stroke-width:1px;"/></g><path d="M256.514,212.5c0,-2.942 -3.457,-5.329 -7.717,-5.329l-144.396,0c-4.26,0 -7.717,2.387 -7.717,5.329l0,10.658c0,2.942 3.457,5.329 7.717,5.329l144.396,0c4.26,0 7.717,-2.387 7.717,-5.329l0,-10.658Z" style="fill:#fff;stroke:#fff;stroke-width:1px;stroke-linecap:butt;stroke-miterlimit:1.41421;"/><rect x="314.078" y="58.397" width="66.013" height="29.097" style="fill:#986f1c;stroke:#986f1c;stroke-width:1px;"/></g><g><rect id="BoMReview2" x="271.25" y="16.67" width="284.346" height="236.757" style="fill:#fff;"/><rect x="489.312" y="30.423" width="50.325" height="22.183" style="fill:#2a3641;"/><path d="M418.246,38.554c0,-1.634 -1.492,-2.96 -3.331,-2.96l-122.579,0c-1.839,0 -3.331,1.326 -3.331,2.96l0,5.92c0,1.634 1.492,2.961 3.331,2.961l122.579,0c1.839,0 3.331,-1.327 3.331,-2.961l0,-5.92Z" style="fill:#2a3641;"/><g><path d="M404.602,72.416c0,-0.704 -0.557,-1.275 -1.242,-1.275l-97.53,0c-0.685,0 -1.241,0.571 -1.241,1.275l0,2.549c0,0.705 0.556,1.276 1.241,1.276l97.53,0c0.685,0 1.242,-0.571 1.242,-1.276l0,-2.549Z" style="fill:#2a3641;"/><circle cx="293.312" cy="73.691" r="4.306" style="fill:#fff;stroke:#2a3641;stroke-width:1px;"/></g><g><path d="M404.602,202.067c0,-0.705 -0.557,-1.276 -1.242,-1.276l-97.53,0c-0.685,0 -1.241,0.571 -1.241,1.276l0,2.549c0,0.704 0.556,1.276 1.241,1.276l97.53,0c0.685,0 1.242,-0.572 1.242,-1.276l0,-2.549Z" style="fill:#2a3641;"/><circle cx="293.312" cy="203.341" r="4.306" style="fill:#fff;stroke:#2a3641;stroke-width:1px;"/></g><g><path d="M404.602,132.317c0,-0.704 -0.557,-1.275 -1.242,-1.275l-97.53,0c-0.685,0 -1.241,0.571 -1.241,1.275l0,2.55c0,0.704 0.556,1.275 1.241,1.275l97.53,0c0.685,0 1.242,-0.571 1.242,-1.275l0,-2.55Z" style="fill:#2a3641;"/><circle cx="293.312" cy="133.592" r="4.306" style="fill:#2a3641;stroke:#2a3641;stroke-width:1px;"/></g><g><path d="M374.844,86.128c0,-0.704 -0.391,-1.275 -0.872,-1.275l-68.511,0c-0.481,0 -0.872,0.571 -0.872,1.275l0,2.55c0,0.704 0.391,1.275 0.872,1.275l68.511,0c0.481,0 0.872,-0.571 0.872,-1.275l0,-2.55Z" style="fill:#2a3641;"/><circle cx="293.312" cy="87.403" r="4.306" style="fill:#2a3641;stroke:#2a3641;stroke-width:1px;"/></g><g><path d="M374.844,116.025c0,-0.704 -0.391,-1.275 -0.872,-1.275l-68.511,0c-0.481,0 -0.872,0.571 -0.872,1.275l0,2.55c0,0.704 0.391,1.275 0.872,1.275l68.511,0c0.481,0 0.872,-0.571 0.872,-1.275l0,-2.55Z" style="fill:#2a3641;"/><circle cx="293.312" cy="117.3" r="4.306" style="fill:#fff;stroke:#2a3641;stroke-width:1px;"/></g><g><path d="M374.844,235.872c0,-0.704 -0.391,-1.275 -0.872,-1.275l-68.511,0c-0.481,0 -0.872,0.571 -0.872,1.275l0,2.55c0,0.704 0.391,1.275 0.872,1.275l68.511,0c0.481,0 0.872,-0.571 0.872,-1.275l0,-2.55Z" style="fill:#2a3641;"/><circle cx="293.312" cy="237.147" r="4.306" style="fill:#fff;stroke:#2a3641;stroke-width:1px;"/></g><g><path d="M374.844,185.795c0,-0.705 -0.391,-1.276 -0.872,-1.276l-68.511,0c-0.481,0 -0.872,0.571 -0.872,1.276l0,2.549c0,0.704 0.391,1.275 0.872,1.275l68.511,0c0.481,0 0.872,-0.571 0.872,-1.275l0,-2.549Z" style="fill:#2a3641;"/><circle cx="293.312" cy="187.069" r="4.306" style="fill:#2a3641;stroke:#2a3641;stroke-width:1px;"/></g><g><path d="M389.513,100.936c0,-0.704 -0.473,-1.275 -1.055,-1.275l-82.815,0c-0.582,0 -1.054,0.571 -1.054,1.275l0,2.55c0,0.704 0.472,1.275 1.054,1.275l82.815,0c0.582,0 1.055,-0.571 1.055,-1.275l0,-2.55Z" style="fill:#2a3641;"/><circle cx="293.312" cy="102.211" r="4.306" style="fill:#fff;stroke:#2a3641;stroke-width:1px;"/></g><g><path d="M425.912,149.987c0,-0.704 -0.675,-1.275 -1.507,-1.275l-118.31,0c-0.831,0 -1.506,0.571 -1.506,1.275l0,2.55c0,0.704 0.675,1.275 1.506,1.275l118.31,0c0.832,0 1.507,-0.571 1.507,-1.275l0,-2.55Z" style="fill:#2a3641;"/><circle cx="293.312" cy="151.262" r="4.306" style="fill:#fff;stroke:#2a3641;stroke-width:1px;"/></g><g><path d="M425.912,220.018c0,-0.704 -0.675,-1.275 -1.507,-1.275l-118.31,0c-0.831,0 -1.506,0.571 -1.506,1.275l0,2.55c0,0.704 0.675,1.275 1.506,1.275l118.31,0c0.832,0 1.507,-0.571 1.507,-1.275l0,-2.55Z" style="fill:#2a3641;"/><circle cx="293.312" cy="221.293" r="4.306" style="fill:#2a3641;stroke:#2a3641;stroke-width:1px;"/></g><g><path d="M358.973,170.064c0,-0.704 -0.303,-1.275 -0.676,-1.275l-53.033,0c-0.373,0 -0.675,0.571 -0.675,1.275l0,2.55c0,0.704 0.302,1.275 0.675,1.275l53.033,0c0.373,0 0.676,-0.571 0.676,-1.275l0,-2.55Z" style="fill:#2a3641;"/><circle cx="293.312" cy="171.339" r="4.306" style="fill:#2a3641;stroke:#2a3641;stroke-width:1px;"/></g></g></svg>