<?xml version="1.0" encoding="UTF-8" standalone="no"?><!DOCTYPE svg PUBLIC "-//W3C//DTD SVG 1.1//EN" "http://www.w3.org/Graphics/SVG/1.1/DTD/svg11.dtd"><svg width="100%" height="100%" viewBox="0 0 850 250" version="1.1" xmlns="http://www.w3.org/2000/svg" xmlns:xlink="http://www.w3.org/1999/xlink" xml:space="preserve" style="fill-rule:evenodd;clip-rule:evenodd;stroke-linejoin:round;stroke-miterlimit:1.41421;"><rect id="Background" x="-25" y="0" width="900" height="252.962" style="fill:#2a3641;"/><rect id="MissSaigonReview" x="449.016" y="0" width="222.803" height="112.811" style="fill:#e79701;"/><path d="M471.298,45.061l2.596,5.348l5.472,0.838l-3.826,4.342l0.744,5.667l-4.99,-2.517l-4.983,2.517l0.797,-5.783l-3.878,-4.226l5.528,-0.915l2.54,-5.271l0,0Z" style="fill:#2a3641;"/><path d="M489.795,45.122l2.596,5.348l5.473,0.838l-3.826,4.342l0.744,5.668l-4.99,-2.518l-4.983,2.518l0.797,-5.784l-3.879,-4.226l5.529,-0.914l2.539,-5.272Z" style="fill:#2a3641;"/><path d="M508.483,45.264l2.596,5.349l5.473,0.838l-3.826,4.342l0.744,5.667l-4.99,-2.518l-4.983,2.518l0.797,-5.783l-3.879,-4.226l5.529,-0.915l2.539,-5.272Z" style="fill:#2a3641;"/><path d="M526.999,45.264l2.596,5.349l5.473,0.838l-3.826,4.342l0.744,5.667l-4.99,-2.518l-4.983,2.518l0.797,-5.783l-3.879,-4.226l5.529,-0.915l2.539,-5.272Z" style="fill:#2a3641;"/><path d="M545.361,45.554l2.596,5.349l5.473,0.838l-3.826,4.342l0.744,5.667l-4.99,-2.518l-4.983,2.518l0.797,-5.783l-3.879,-4.226l5.529,-0.915l2.539,-5.272l0,0Z" style="fill:#fff;"/><rect id="MissSaigonReview1" x="199.037" y="144.337" width="238.928" height="105.663" style="fill:#e79701;"/><path d="M219.98,187.283l2.645,5.72l5.578,0.897l-3.9,4.644l0.759,6.061l-5.086,-2.692l-5.078,2.692l0.812,-6.185l-3.953,-4.52l5.634,-0.978l2.589,-5.639l0,0Z" style="fill:#2a3641;"/><path d="M238.831,187.349l2.646,5.72l5.577,0.896l-3.899,4.644l0.758,6.062l-5.085,-2.693l-5.079,2.693l0.813,-6.186l-3.954,-4.52l5.635,-0.978l2.588,-5.638l0,0Z" style="fill:#2a3641;"/><path d="M257.877,187.501l2.646,5.72l5.577,0.897l-3.899,4.644l0.759,6.061l-5.086,-2.692l-5.079,2.692l0.813,-6.185l-3.953,-4.52l5.634,-0.978l2.588,-5.639l0,0Z" style="fill:#2a3641;"/><path d="M276.748,187.501l2.646,5.72l5.577,0.897l-3.899,4.644l0.758,6.061l-5.086,-2.692l-5.078,2.692l0.812,-6.185l-3.953,-4.52l5.635,-0.978l2.588,-5.639l0,0Z" style="fill:#fff;"/><path d="M295.462,187.812l2.645,5.72l5.578,0.896l-3.9,4.644l0.759,6.062l-5.086,-2.693l-5.078,2.693l0.812,-6.186l-3.953,-4.52l5.634,-0.978l2.589,-5.638l0,0Z" style="fill:#fff;"/><rect id="BoMReview" x="200.292" y="-6.023" width="238.928" height="134.27" style="fill:#fff;"/><path d="M219.928,50.484l2.657,5.474l5.602,0.858l-3.917,4.445l0.762,5.801l-5.107,-2.578l-5.101,2.578l0.816,-5.92l-3.97,-4.326l5.659,-0.936l2.599,-5.396l0,0Z" style="fill:#ffad0d;"/><path d="M238.861,50.547l2.657,5.474l5.602,0.858l-3.917,4.444l0.762,5.801l-5.107,-2.577l-5.101,2.577l0.816,-5.92l-3.97,-4.325l5.659,-0.936l2.599,-5.396l0,0Z" style="fill:#ffad0d;"/><path d="M257.99,50.693l2.657,5.474l5.601,0.858l-3.916,4.444l0.762,5.801l-5.108,-2.577l-5.1,2.577l0.816,-5.92l-3.971,-4.325l5.659,-0.936l2.6,-5.396l0,0Z" style="fill:#ffad0d;"/><path d="M276.942,50.693l2.657,5.474l5.601,0.858l-3.916,4.444l0.762,5.801l-5.108,-2.577l-5.1,2.577l0.815,-5.92l-3.97,-4.325l5.659,-0.936l2.6,-5.396l0,0Z" style="fill:#ffad0d;"/><path d="M295.736,50.99l2.657,5.474l5.601,0.858l-3.916,4.444l0.762,5.801l-5.108,-2.577l-5.1,2.577l0.816,-5.92l-3.97,-4.325l5.659,-0.936l2.599,-5.396l0,0Z" style="fill:#ffad0d;"/><path d="M326.361,16.094c0,-1.634 -1.326,-2.96 -2.96,-2.96l-108.941,0c-1.634,0 -2.96,1.326 -2.96,2.96l0,5.92c0,1.634 1.326,2.961 2.96,2.961l108.941,0c1.634,0 2.96,-1.327 2.96,-2.961l0,-5.92Z" style="fill:#2a3641;"/><path d="M326.361,34.441c0,-0.788 -0.639,-1.427 -1.426,-1.427l-112.009,0c-0.787,0 -1.426,0.639 -1.426,1.427l0,2.853c0,0.788 0.639,1.427 1.426,1.427l112.009,0c0.787,0 1.426,-0.639 1.426,-1.427l0,-2.853Z" style="fill:#2a3641;"/><path d="M414.697,79.419c0,-0.816 -0.663,-1.48 -1.48,-1.48l-200.238,0c-0.816,0 -1.479,0.664 -1.479,1.48l0,2.96c0,0.817 0.663,1.48 1.479,1.48l200.238,0c0.817,0 1.48,-0.663 1.48,-1.48l0,-2.96Z" style="fill:#2a3641;"/><path d="M414.697,93.478c0,-0.817 -0.663,-1.48 -1.48,-1.48l-200.238,0c-0.816,0 -1.479,0.663 -1.479,1.48l0,2.959c0,0.817 0.663,1.48 1.479,1.48l200.238,0c0.817,0 1.48,-0.663 1.48,-1.48l0,-2.959Z" style="fill:#2a3641;"/><path d="M315.462,109.269c0,-0.816 -0.663,-1.48 -1.48,-1.48l-101.003,0c-0.816,0 -1.479,0.664 -1.479,1.48l0,2.96c0,0.817 0.663,1.48 1.479,1.48l101.003,0c0.817,0 1.48,-0.663 1.48,-1.48l0,-2.96Z" style="fill:#2a3641;"/><rect id="BoMReview1" x="448.681" y="128.07" width="222.803" height="124.892" style="fill:#fff;"/><path d="M468.969,173.362l2.835,5.842l5.978,0.915l-4.179,4.743l0.813,6.19l-5.451,-2.75l-5.443,2.75l0.871,-6.317l-4.237,-4.616l6.039,-0.999l2.774,-5.758l0,0Z" style="fill:#ffad0d;"/><path d="M489.174,173.429l2.835,5.842l5.977,0.915l-4.179,4.743l0.813,6.19l-5.45,-2.75l-5.443,2.75l0.87,-6.317l-4.236,-4.616l6.038,-0.999l2.775,-5.758l0,0Z" style="fill:#ffad0d;"/><path d="M509.586,173.585l2.836,5.841l5.977,0.916l-4.179,4.743l0.813,6.19l-5.451,-2.75l-5.442,2.75l0.87,-6.317l-4.237,-4.616l6.039,-0.999l2.774,-5.758l0,0Z" style="fill:#ffad0d;"/><path d="M529.811,173.585l2.836,5.841l5.977,0.916l-4.179,4.743l0.813,6.19l-5.451,-2.75l-5.443,2.75l0.871,-6.317l-4.237,-4.616l6.039,-0.999l2.774,-5.758l0,0Z" style="fill:#ffad0d;"/><path d="M549.868,173.901l2.835,5.842l5.978,0.916l-4.179,4.742l0.813,6.191l-5.451,-2.75l-5.443,2.75l0.871,-6.317l-4.237,-4.616l6.039,-0.999l2.774,-5.759Z" style="fill:#2a3641;"/><path d="M566.474,142.438c0,-1.634 -1.326,-2.96 -2.96,-2.96l-100.398,0c-1.634,0 -2.96,1.326 -2.96,2.96l0,5.92c0,1.634 1.326,2.961 2.96,2.961l100.398,0c1.634,0 2.96,-1.327 2.96,-2.961l0,-5.92Z" style="fill:#2a3641;"/><path d="M543.141,15.284c0,-1.634 -1.326,-2.96 -2.96,-2.96l-73.991,0c-1.634,0 -2.96,1.326 -2.96,2.96l0,5.92c0,1.634 1.326,2.96 2.96,2.96l73.991,0c1.634,0 2.96,-1.326 2.96,-2.96l0,-5.92Z" style="fill:#fff;"/><path d="M273.063,158.034c0,-1.634 -1.326,-2.96 -2.96,-2.96l-55.386,0c-1.634,0 -2.96,1.326 -2.96,2.96l0,5.92c0,1.634 1.326,2.96 2.96,2.96l55.386,0c1.634,0 2.96,-1.326 2.96,-2.96l0,-5.92Z" style="fill:#fff;"/><path d="M608.153,160.785c0,-0.788 -0.639,-1.427 -1.427,-1.427l-145.143,0c-0.788,0 -1.427,0.639 -1.427,1.427l0,2.853c0,0.788 0.639,1.427 1.427,1.427l145.143,0c0.788,0 1.427,-0.639 1.427,-1.427l0,-2.853Z" style="fill:#2a3641;"/><path d="M543.141,32.743c0,-0.787 -0.639,-1.427 -1.427,-1.427l-77.058,0c-0.787,0 -1.426,0.64 -1.426,1.427l0,2.854c0,0.787 0.639,1.426 1.426,1.426l77.058,0c0.788,0 1.427,-0.639 1.427,-1.426l0,-2.854Z" style="fill:#fff;"/><path d="M313.588,175.493c0,-0.788 -0.639,-1.427 -1.427,-1.427l-98.977,0c-0.788,0 -1.427,0.639 -1.427,1.427l0,2.853c0,0.788 0.639,1.427 1.427,1.427l98.977,0c0.788,0 1.427,-0.639 1.427,-1.427l0,-2.853Z" style="fill:#fff;"/><path d="M657.606,69.715c0,-0.787 -0.639,-1.427 -1.426,-1.427l-191.524,0c-0.787,0 -1.426,0.64 -1.426,1.427l0,2.854c0,0.787 0.639,1.426 1.426,1.426l191.524,0c0.787,0 1.426,-0.639 1.426,-1.426l0,-2.854Z" style="fill:#fff;"/><path d="M406.134,215.569c0,-0.787 -0.64,-1.426 -1.427,-1.426l-191.523,0c-0.788,0 -1.427,0.639 -1.427,1.426l0,2.854c0,0.787 0.639,1.427 1.427,1.427l191.523,0c0.787,0 1.427,-0.64 1.427,-1.427l0,-2.854Z" style="fill:#fff;"/><path d="M648.727,82.976c0,-0.787 -0.639,-1.427 -1.427,-1.427l-182.644,0c-0.787,0 -1.426,0.64 -1.426,1.427l0,2.854c0,0.787 0.639,1.426 1.426,1.426l182.644,0c0.788,0 1.427,-0.639 1.427,-1.426l0,-2.854Z" style="fill:#fff;"/><path d="M336.745,228.831c0,-0.788 -0.639,-1.427 -1.426,-1.427l-122.135,0c-0.788,0 -1.427,0.639 -1.427,1.427l0,2.853c0,0.787 0.639,1.427 1.427,1.427l122.135,0c0.787,0 1.426,-0.64 1.426,-1.427l0,-2.853Z" style="fill:#fff;"/><path d="M561.787,96.207c0,-0.788 -0.64,-1.427 -1.427,-1.427l-95.704,0c-0.787,0 -1.426,0.639 -1.426,1.427l0,2.853c0,0.788 0.639,1.427 1.426,1.427l95.704,0c0.787,0 1.427,-0.639 1.427,-1.427l0,-2.853Z" style="fill:#fff;"/><path d="M654.333,200.176c0,-0.817 -0.663,-1.48 -1.48,-1.48l-191.217,0c-0.817,0 -1.48,0.663 -1.48,1.48l0,2.96c0,0.816 0.663,1.479 1.48,1.479l191.217,0c0.817,0 1.48,-0.663 1.48,-1.479l0,-2.96Z" style="fill:#2a3641;"/><path d="M654.333,214.234c0,-0.817 -0.663,-1.48 -1.48,-1.48l-191.217,0c-0.817,0 -1.48,0.663 -1.48,1.48l0,2.96c0,0.817 0.663,1.48 1.48,1.48l191.217,0c0.817,0 1.48,-0.663 1.48,-1.48l0,-2.96Z" style="fill:#2a3641;"/><path d="M610.169,230.026c0,-0.817 -0.663,-1.48 -1.48,-1.48l-147.053,0c-0.817,0 -1.48,0.663 -1.48,1.48l0,2.959c0,0.817 0.663,1.48 1.48,1.48l147.053,0c0.817,0 1.48,-0.663 1.48,-1.48l0,-2.959Z" style="fill:#2a3641;"/><rect id="MissSaigonReview2" x="-25" y="62.18" width="214.311" height="104.989" style="fill:#e79701;"/><g><path d="M1.212,100.75l2.497,5.144l5.264,0.806l-3.68,4.176l0.716,5.452l-4.8,-2.422l-4.793,2.422l0.767,-5.563l-3.731,-4.065l5.318,-0.88l2.442,-5.07l0,0Z" style="fill:#2a3641;"/><path d="M19.005,100.808l2.497,5.145l5.264,0.806l-3.681,4.176l0.716,5.452l-4.8,-2.422l-4.793,2.422l0.767,-5.563l-3.731,-4.065l5.318,-0.88l2.443,-5.071Z" style="fill:#2a3641;"/><path d="M36.981,100.946l2.497,5.144l5.264,0.806l-3.681,4.177l0.716,5.451l-4.8,-2.422l-4.793,2.422l0.767,-5.563l-3.731,-4.065l5.318,-0.88l2.443,-5.07l0,0Z" style="fill:#2a3641;"/><path d="M54.791,100.946l2.497,5.144l5.264,0.806l-3.681,4.177l0.716,5.451l-4.8,-2.422l-4.793,2.422l0.767,-5.563l-3.731,-4.065l5.318,-0.88l2.443,-5.07l0,0Z" style="fill:#2a3641;"/><path d="M72.453,101.225l2.497,5.144l5.264,0.806l-3.68,4.176l0.716,5.452l-4.8,-2.422l-4.793,2.422l0.766,-5.563l-3.731,-4.065l5.318,-0.88l2.443,-5.07l0,0Z" style="fill:#fff;"/></g><rect id="MissSaigonReview3" x="678.517" y="63.292" width="229.821" height="98.114" style="fill:#e79701;"/><g><path d="M698.662,104.602l2.545,5.502l5.365,0.862l-3.751,4.467l0.73,5.831l-4.892,-2.591l-4.885,2.591l0.781,-5.95l-3.802,-4.348l5.42,-0.941l2.489,-5.423l0,0Z" style="fill:#2a3641;"/><path d="M716.795,104.665l2.545,5.502l5.365,0.862l-3.751,4.467l0.73,5.831l-4.892,-2.591l-4.885,2.591l0.781,-5.95l-3.802,-4.348l5.42,-0.941l2.489,-5.423l0,0Z" style="fill:#2a3641;"/><path d="M735.116,104.812l2.544,5.502l5.365,0.862l-3.751,4.467l0.73,5.83l-4.892,-2.59l-4.885,2.59l0.782,-5.95l-3.803,-4.347l5.42,-0.941l2.49,-5.423l0,0Z" style="fill:#2a3641;"/><path d="M753.267,104.812l2.545,5.502l5.364,0.862l-3.75,4.467l0.729,5.83l-4.892,-2.59l-4.884,2.59l0.781,-5.95l-3.803,-4.347l5.42,-0.941l2.49,-5.423l0,0Z" style="fill:#2a3641;"/><path d="M771.267,105.11l2.545,5.502l5.365,0.862l-3.751,4.467l0.73,5.831l-4.892,-2.591l-4.885,2.591l0.781,-5.95l-3.802,-4.348l5.42,-0.941l2.489,-5.423l0,0Z" style="fill:#2a3641;"/></g><rect id="BoMReview2" x="678.517" y="-65.13" width="229.821" height="119.837" style="fill:#fff;"/><rect id="BoMReview3" x="678.366" y="172.719" width="229.821" height="119.837" style="fill:#fff;"/><g><path d="M697.253,217.758l2.556,5.265l5.388,0.825l-3.767,4.275l0.733,5.58l-4.913,-2.479l-4.906,2.479l0.785,-5.694l-3.819,-4.161l5.443,-0.9l2.5,-5.19Z" style="fill:#ffad0d;"/><path d="M715.465,217.818l2.555,5.265l5.388,0.825l-3.767,4.275l0.733,5.58l-4.913,-2.479l-4.906,2.479l0.785,-5.694l-3.819,-4.161l5.443,-0.9l2.501,-5.19l0,0Z" style="fill:#ffad0d;"/><path d="M733.864,217.958l2.556,5.266l5.388,0.825l-3.767,4.275l0.732,5.58l-4.913,-2.479l-4.905,2.479l0.784,-5.695l-3.819,-4.16l5.444,-0.9l2.5,-5.191Z" style="fill:#ffad0d;"/><path d="M752.094,217.958l2.555,5.266l5.388,0.825l-3.767,4.275l0.733,5.58l-4.913,-2.479l-4.906,2.479l0.785,-5.695l-3.819,-4.16l5.443,-0.9l2.501,-5.191l0,0Z" style="fill:#ffad0d;"/><path d="M770.172,218.244l2.556,5.265l5.387,0.825l-3.766,4.275l0.732,5.58l-4.913,-2.479l-4.906,2.479l0.785,-5.694l-3.819,-4.161l5.443,-0.9l2.501,-5.19Z" style="fill:#ffad0d;"/></g><rect id="BoMReview4" x="-25" y="174.955" width="214.311" height="113.761" style="fill:#fff;"/><rect id="BoMReview5" x="-24.227" y="-62.001" width="214.311" height="113.761" style="fill:#fff;"/><g><path d="M-0.071,220.18l2.727,5.619l5.75,0.88l-4.02,4.562l0.782,5.955l-5.243,-2.645l-5.235,2.645l0.837,-6.076l-4.075,-4.441l5.808,-0.96l2.669,-5.539l0,0Z" style="fill:#ffad0d;"/><path d="M19.363,220.244l2.727,5.619l5.75,0.881l-4.02,4.562l0.782,5.954l-5.243,-2.645l-5.235,2.645l0.837,-6.076l-4.075,-4.44l5.809,-0.961l2.668,-5.539l0,0Z" style="fill:#ffad0d;"/><path d="M38.998,220.394l2.727,5.619l5.75,0.881l-4.02,4.562l0.782,5.954l-5.243,-2.645l-5.235,2.645l0.837,-6.076l-4.075,-4.44l5.809,-0.961l2.668,-5.539l0,0Z" style="fill:#ffad0d;"/><path d="M58.452,220.394l2.727,5.619l5.75,0.881l-4.02,4.562l0.782,5.954l-5.243,-2.645l-5.235,2.645l0.837,-6.076l-4.075,-4.44l5.808,-0.961l2.669,-5.539l0,0Z" style="fill:#ffad0d;"/><path d="M77.744,220.699l2.727,5.619l5.75,0.88l-4.02,4.562l0.782,5.955l-5.243,-2.645l-5.235,2.645l0.837,-6.077l-4.075,-4.44l5.809,-0.96l2.668,-5.539l0,0Z" style="fill:#2a3641;"/></g><g><path d="M1.929,-16.366l2.727,5.619l5.75,0.881l-4.02,4.562l0.782,5.954l-5.243,-2.645l-5.235,2.645l0.837,-6.076l-4.075,-4.44l5.808,-0.961l2.669,-5.539l0,0Z" style="fill:#ffad0d;"/><path d="M21.363,-16.301l2.727,5.619l5.75,0.88l-4.02,4.562l0.782,5.955l-5.243,-2.646l-5.235,2.646l0.837,-6.077l-4.075,-4.44l5.809,-0.961l2.668,-5.538l0,0Z" style="fill:#ffad0d;"/><path d="M40.998,-16.152l2.727,5.619l5.75,0.881l-4.02,4.562l0.782,5.955l-5.243,-2.646l-5.235,2.646l0.837,-6.077l-4.075,-4.44l5.809,-0.961l2.668,-5.539l0,0Z" style="fill:#ffad0d;"/><path d="M60.452,-16.152l2.727,5.619l5.75,0.881l-4.02,4.562l0.782,5.955l-5.243,-2.646l-5.235,2.646l0.837,-6.077l-4.075,-4.44l5.808,-0.961l2.669,-5.539Z" style="fill:#ffad0d;"/><path d="M79.744,-15.847l2.727,5.619l5.75,0.881l-4.02,4.562l0.782,5.954l-5.243,-2.645l-5.235,2.645l0.837,-6.076l-4.075,-4.44l5.809,-0.961l2.668,-5.539l0,0Z" style="fill:#2a3641;"/></g><path d="M774.015,186.975c0,-1.571 -1.275,-2.847 -2.847,-2.847l-79.011,0c-1.571,0 -2.847,1.276 -2.847,2.847l0,5.695c0,1.571 1.276,2.847 2.847,2.847l79.011,0c1.572,0 2.847,-1.276 2.847,-2.847l0,-5.695Z" style="fill:#2a3641;"/><path d="M141.645,191.639c0,-1.572 -1.276,-2.847 -2.847,-2.847l-149.913,0c-1.571,0 -2.847,1.275 -2.847,2.847l0,5.695c0,1.571 1.276,2.847 2.847,2.847l149.913,0c1.571,0 2.847,-1.276 2.847,-2.847l0,-5.695Z" style="fill:#2a3641;"/><path d="M62.873,74.276c0,-1.572 -1.276,-2.848 -2.848,-2.848l-71.171,0c-1.571,0 -2.847,1.276 -2.847,2.848l0,5.694c0,1.572 1.276,2.848 2.847,2.848l71.171,0c1.572,0 2.848,-1.276 2.848,-2.848l0,-5.694Z" style="fill:#fff;"/><path d="M810.413,76.467c0,-1.571 -1.276,-2.847 -2.847,-2.847l-113.966,0c-1.571,0 -2.847,1.276 -2.847,2.847l0,5.695c0,1.571 1.276,2.847 2.847,2.847l113.966,0c1.571,0 2.847,-1.276 2.847,-2.847l0,-5.695l0,0Z" style="fill:#fff;"/><path d="M799.794,204.623c0,-0.758 -0.615,-1.373 -1.373,-1.373l-107.739,0c-0.757,0 -1.372,0.615 -1.372,1.373l0,2.744c0,0.758 0.615,1.373 1.372,1.373l107.739,0c0.758,0 1.373,-0.615 1.373,-1.373l0,-2.744Z" style="fill:#2a3641;"/><path d="M128.394,209.286c0,-0.757 -0.615,-1.372 -1.372,-1.372l-139.612,0c-0.757,0 -1.372,0.615 -1.372,1.372l0,2.745c0,0.758 0.615,1.372 1.372,1.372l139.612,0c0.757,0 1.372,-0.614 1.372,-1.372l0,-2.745Z" style="fill:#2a3641;"/><path d="M62.873,91.07c0,-0.758 -0.615,-1.373 -1.373,-1.373l-74.121,0c-0.757,0 -1.372,0.615 -1.372,1.373l0,2.744c0,0.758 0.615,1.373 1.372,1.373l74.121,0c0.758,0 1.373,-0.615 1.373,-1.373l0,-2.744Z" style="fill:#fff;"/><path d="M788.703,93.261c0,-0.758 -0.615,-1.373 -1.373,-1.373l-95.205,0c-0.757,0 -1.372,0.615 -1.372,1.373l0,2.745c0,0.757 0.615,1.372 1.372,1.372l95.205,0c0.758,0 1.373,-0.615 1.373,-1.372l0,-2.745Z" style="fill:#fff;"/><path d="M172.975,126.632c0,-0.757 -0.615,-1.372 -1.372,-1.372l-184.224,0c-0.757,0 -1.372,0.615 -1.372,1.372l0,2.745c0,0.757 0.615,1.372 1.372,1.372l184.224,0c0.757,0 1.372,-0.615 1.372,-1.372l0,-2.745Z" style="fill:#fff;"/><path d="M877.721,131.81c0,-0.758 -0.615,-1.373 -1.372,-1.373l-184.224,0c-0.757,0 -1.372,0.615 -1.372,1.373l0,2.744c0,0.758 0.615,1.373 1.372,1.373l184.224,0c0.757,0 1.372,-0.615 1.372,-1.373l0,-2.744l0,0Z" style="fill:#fff;"/><path d="M172.428,139.388c0,-0.757 -0.615,-1.372 -1.372,-1.372l-183.677,0c-0.757,0 -1.372,0.615 -1.372,1.372l0,2.745c0,0.757 0.615,1.372 1.372,1.372l183.677,0c0.757,0 1.372,-0.615 1.372,-1.372l0,-2.745Z" style="fill:#fff;"/><path d="M876.853,144.565c0,-0.757 -0.615,-1.372 -1.372,-1.372l-183.356,0c-0.757,0 -1.372,0.615 -1.372,1.372l0,2.745c0,0.758 0.615,1.373 1.372,1.373l183.356,0c0.757,0 1.372,-0.615 1.372,-1.373l0,-2.745Z" style="fill:#fff;"/><path d="M172.428,152.114c0,-0.757 -0.615,-1.372 -1.372,-1.372l-183.677,0c-0.757,0 -1.372,0.615 -1.372,1.372l0,2.745c0,0.757 0.615,1.372 1.372,1.372l183.677,0c0.757,0 1.372,-0.615 1.372,-1.372l0,-2.745Z" style="fill:#fff;"/><path d="M884.762,245.59c0,-0.786 -0.638,-1.424 -1.423,-1.424l-192.606,0c-0.785,0 -1.423,0.638 -1.423,1.424l0,2.847c0,0.785 0.638,1.423 1.423,1.423l192.606,0c0.785,0 1.423,-0.638 1.423,-1.423l0,-2.847Z" style="fill:#2a3641;"/><path d="M884.914,17.263c0,-0.786 -0.638,-1.424 -1.424,-1.424l-192.605,0c-0.786,0 -1.424,0.638 -1.424,1.424l0,2.847c0,0.785 0.638,1.423 1.424,1.423l192.605,0c0.786,0 1.424,-0.638 1.424,-1.423l0,-2.847l0,0Z" style="fill:#2a3641;"/><path d="M176.317,21.054c0,-0.786 -0.638,-1.424 -1.424,-1.424l-183.929,0c-0.786,0 -1.423,0.638 -1.423,1.424l0,2.847c0,0.785 0.637,1.423 1.423,1.423l183.929,0c0.786,0 1.424,-0.638 1.424,-1.423l0,-2.847l0,0Z" style="fill:#2a3641;"/><path d="M832.343,32.453c0,-0.786 -0.638,-1.424 -1.424,-1.424l-140.034,0c-0.786,0 -1.424,0.638 -1.424,1.424l0,2.847c0,0.785 0.638,1.423 1.424,1.423l140.034,0c0.786,0 1.424,-0.638 1.424,-1.423l0,-2.847Z" style="fill:#2a3641;"/><path d="M85.658,36.244c0,-0.786 -0.638,-1.424 -1.423,-1.424l-93.271,0c-0.786,0 -1.423,0.638 -1.423,1.424l0,2.846c0,0.786 0.637,1.424 1.423,1.424l93.271,0c0.785,0 1.423,-0.638 1.423,-1.424l0,-2.846Z" style="fill:#2a3641;"/></svg>